
<svg height='300px' width='300px'  fill="#43a3fb" xmlns="http://www.w3.org/2000/svg" xmlns:xlink="http://www.w3.org/1999/xlink" version="1.1" x="0px" y="0px" viewBox="0 0 520 520" style="enable-background:new 0 0 520 520;" xml:space="preserve"><g><g><circle cx="117.497" cy="77.502" r="7.5"></circle><circle cx="67.501" cy="172.498" r="7.5"></circle><circle cx="462.5" cy="207.502" r="7.5"></circle><circle cx="432.496" cy="287.498" r="7.5"></circle><circle cx="382.5" cy="52.502" r="7.5"></circle><circle cx="132.497" cy="307.502" r="7.5"></circle><path d="M258.349,327.691l0.774,1.72c3.047,6.765,9.725,10.777,16.704,10.777c8.791,0,16.56-6.327,18.034-15.399    c47.995-10.001,87.789-44.055,105.152-90.032c12.1-1.99,18.548-14.809,13.716-25.538l-5.128-11.386    c4.992-52.001-18.424-101.112-58.727-130.402l-7.09-15.742c-5.568-12.368-22.297-14.623-30.88-3.98    c-14.954-5.111-30.586-7.707-46.534-7.707c-79.354,0-143.912,64.559-143.912,143.913    C120.459,261.353,181.543,324.533,258.349,327.691z M279.204,329.458c-4.169,1.879-9.085,0.013-10.964-4.154l-25.231-56.03    l15.117-6.808c4.898,10.877,19.948,44.294,25.233,56.029C285.236,322.663,283.372,327.581,279.204,329.458z M234.343,262.209    c-0.001,0-0.002,0.001-0.003,0.002l-2.843,1.28l-4.079-9.059l34.64-15.601l4.079,9.059l-31.79,14.317    C234.346,262.208,234.344,262.209,234.343,262.209z M218.752,247.367C218.752,247.367,218.752,247.368,218.752,247.367    l-6.145,2.768l-34.095-75.706l57.462-25.878c8.686,19.288,18.855,41.869,34.094,75.706L218.752,247.367    C218.753,247.367,218.753,247.367,218.752,247.367z M195.604,236.731c-11.74,5.215-25.543,0.019-30.86-11.787    c-5.286-11.738-0.07-25.58,11.625-30.923L195.604,236.731z M311.465,73.443l64.032,142.182l-95.677,5.934l-35.391-78.586    L311.465,73.443z M267.244,258.359c0.103-0.046,7.665-3.452,7.56-3.404l0.672-0.303c3.813-1.715,8.275-0.017,9.986,3.785    c1.71,3.797,0.012,8.276-3.784,9.986l-8.232,3.707L267.244,258.359z M292.651,314.833c-0.527-1.264-10.097-22.461-15.1-33.585    l8.232-3.707c4.274-1.925,7.543-5.399,9.204-9.784c4.827-12.731-6.112-25.911-19.513-23.481l-4.301-9.55l6.727-3.029    l102.034-6.328c1.971,3.675,5.119,6.509,8.847,8.129C372.291,274.867,336.145,305.482,292.651,314.833z M398.078,176.685    l-39.662-88.066C381.975,111.918,396.264,143.34,398.078,176.685z M325.102,50.906c3.259,0,6.228,1.919,7.566,4.889l70.944,157.53    c2.478,5.507-1.595,11.697-7.552,11.697c-3.259,0-6.228-1.919-7.566-4.889c-15.67-34.794-54.947-122.009-70.944-157.53    C315.072,57.099,319.144,50.906,325.102,50.906z M264.371,50.001c14.599,0,28.911,2.337,42.614,6.938    c-0.267,2.108-0.182,4.275,0.317,6.413l-71.753,74.422l-65.703,29.589c-2.516,1.133-3.64,4.095-2.506,6.612l4.921,10.928    c-16.723,7.607-24.188,27.382-16.637,44.148c7.545,16.756,27.211,24.325,44.085,16.801l5.832,12.948    c1.139,2.529,4.107,3.632,6.612,2.506l6.145-2.768l6.132,13.617c0.815,1.809,2.612,2.947,4.559,2.947    c1.671,0,2.505-0.74,4.899-1.723l19.817,44.005c-68.66-5.491-123.248-63.748-123.248-133.472    C130.459,110.074,190.532,50.001,264.371,50.001z"></path><path d="M236.193,172.12c-1.134-2.518-4.093-3.639-6.612-2.506l-31.125,14.017c-2.518,1.134-3.64,4.094-2.506,6.612    c1.127,2.502,4.077,3.646,6.612,2.506l31.125-14.017C236.205,177.598,237.327,174.638,236.193,172.12z"></path><path d="M244.378,190.296c-1.134-2.518-4.094-3.639-6.612-2.506l-31.124,14.018c-2.518,1.134-3.64,4.095-2.506,6.612    c1.127,2.502,4.077,3.646,6.612,2.506l31.124-14.018C244.391,195.774,245.512,192.814,244.378,190.296z"></path><path d="M252.565,208.473c-1.134-2.518-4.092-3.638-6.612-2.506l-31.125,14.017c-2.518,1.134-3.64,4.094-2.506,6.612    c1.127,2.502,4.077,3.646,6.612,2.506l31.125-14.017C252.577,213.951,253.699,210.991,252.565,208.473z"></path><path d="M341.718,198.49c0.813,1.896,2.658,3.032,4.598,3.032c3.573,0,6.01-3.667,4.594-6.971l-37.819-88.246    c-1.088-2.539-4.027-3.713-6.565-2.626c-2.538,1.088-3.714,4.027-2.626,6.565L341.718,198.49z"></path><path d="M464.998,350.002h-45.503c-2.323-11.398-12.424-20-24.497-20c-12.073,0-22.174,8.602-24.497,20H64.998    c-2.761,0-5,2.238-5,5c0,2.761,2.239,5,5,5h305.503c2.323,11.397,12.424,20,24.497,20c12.073,0,22.174-8.603,24.497-20h45.503    c2.762,0,5-2.239,5-5C469.998,352.24,467.76,350.002,464.998,350.002z M394.998,370.002c-8.271,0-15-6.73-15-15    c0-8.272,6.729-15,15-15c8.272,0,15,6.728,15,15C409.998,363.272,403.27,370.002,394.998,370.002z"></path><path d="M464.998,400.002H259.495c-2.323-11.398-12.424-20-24.497-20c-12.073,0-22.174,8.602-24.497,20H64.998    c-2.761,0-5,2.238-5,5c0,2.761,2.239,5,5,5h145.503c2.323,11.397,12.424,20,24.497,20c12.073,0,22.174-8.603,24.497-20h205.503    c2.762,0,5-2.239,5-5C469.998,402.24,467.76,400.002,464.998,400.002z M234.998,420.002c-8.271,0-15-6.73-15-15    c0-8.272,6.729-15,15-15c8.271,0,15,6.728,15,15C249.998,413.272,243.269,420.002,234.998,420.002z"></path><path d="M464.998,450.002H354.495c-2.323-11.398-12.424-20-24.497-20c-12.073,0-22.174,8.602-24.497,20H64.998    c-2.761,0-5,2.238-5,5c0,2.761,2.239,5,5,5h240.503c2.323,11.397,12.424,20,24.497,20c12.073,0,22.174-8.603,24.497-20h110.503    c2.762,0,5-2.239,5-5C469.998,452.24,467.76,450.002,464.998,450.002z M329.998,470.002c-8.271,0-15-6.73-15-15    c0-8.272,6.729-15,15-15c8.272,0,15,6.728,15,15C344.998,463.272,338.27,470.002,329.998,470.002z"></path><path d="M104.998,270.002c0-16.543-13.458-30.001-30-30.001c-16.542,0-30,13.458-30,30.001c0,16.542,13.458,30,30,30    C91.54,300.002,104.998,286.544,104.998,270.002z M54.998,270.002c0-11.028,8.972-20.001,20-20.001c11.028,0,20,8.972,20,20.001    c0,11.027-8.972,20-20,20C63.97,290.002,54.998,281.029,54.998,270.002z"></path><path d="M444.998,160.001c13.785,0,25-11.215,25-25c0-13.785-11.215-25-25-25c-13.785,0-25,11.215-25,25    C419.998,148.787,431.213,160.001,444.998,160.001z M444.998,120.002c8.272,0,15,6.729,15,15c0,8.271-6.728,15-15,15    c-8.271,0-15-6.729-15-15C429.998,126.73,436.727,120.002,444.998,120.002z"></path></g></g></svg>
