<svg width="93" height="93" viewBox="0 0 93 93" fill="none" xmlns="http://www.w3.org/2000/svg">
<g clip-path="url(#clip0_2402:9888)">
<path d="M71.2928 50.0179C71.2928 68.8634 56.0428 84.1402 37.2311 84.1402C18.4194 84.1402 3.16943 68.8634 3.16943 50.0179C3.16943 31.1732 18.4194 15.8965 37.2311 15.8965C56.0428 15.8965 71.2928 31.1732 71.2928 50.0179Z" fill="#EFEFD2"/>
<path d="M48.7948 16.877C43.4138 16.877 38.8573 20.3897 37.2692 25.2479C35.682 20.3897 31.1255 16.877 25.7444 16.877C19.044 16.877 13.6129 22.3175 13.6129 29.0298C13.6129 35.7411 25.7444 53.3354 37.2692 58.1962C48.7948 54.551 60.9264 35.7411 60.9264 29.0298C60.9264 22.3175 55.4953 16.877 48.7948 16.877Z" fill="#FC8C29"/>
<path d="M37.2701 59.6787C37.0752 59.6787 36.8786 59.6396 36.6964 59.5632C24.5132 54.424 12.1317 36.2593 12.1317 29.0284C12.1317 21.5097 18.239 15.3926 25.7454 15.3926C30.5137 15.3926 34.8237 17.8578 37.2701 21.7712C39.7175 17.8578 44.0274 15.3926 48.7958 15.3926C56.3013 15.3926 62.4077 21.5089 62.4077 29.0284C62.4077 36.1872 50.0135 55.7211 37.7159 59.6091C37.571 59.6558 37.421 59.6787 37.2701 59.6787ZM25.7454 18.3595C19.872 18.3595 15.0934 23.1447 15.0934 29.0284C15.0934 34.6659 26.1775 51.5378 37.3396 56.6074C47.9873 52.7924 59.4452 35.0692 59.4452 29.0284C59.4452 23.1447 54.6683 18.3595 48.7949 18.3595C44.1799 18.3595 40.1132 21.3136 38.6777 25.7084C38.4777 26.317 37.9108 26.7304 37.2701 26.7304C36.6295 26.7304 36.0626 26.317 35.8626 25.7084C34.4271 21.3136 30.3604 18.3595 25.7454 18.3595Z" fill="#4C241D"/>
<path d="M60.186 91.5588C46.7131 91.5588 35.7501 80.5766 35.7501 67.08V58.9204C35.7501 58.1003 36.4128 57.4365 37.2314 57.4365C38.05 57.4365 38.7127 58.1003 38.7127 58.9204V67.08C38.7127 78.9408 48.346 88.5919 60.186 88.5919C72.0261 88.5919 81.6603 78.9408 81.6603 67.08V39.6343C81.6603 38.8142 82.3221 38.1504 83.1407 38.1504C83.9593 38.1504 84.622 38.8142 84.622 39.6343V67.08C84.622 80.5766 73.6599 91.5588 60.186 91.5588Z" fill="#4C241D"/>
<path d="M90.546 33.6989C90.546 37.7957 87.2301 41.1174 83.1405 41.1174C79.0509 41.1174 75.7358 37.7957 75.7358 33.6989C75.7358 29.6021 79.0509 26.2812 83.1405 26.2812C87.2301 26.2812 90.546 29.6021 90.546 33.6989Z" fill="white"/>
<path d="M83.1406 42.5991C78.2409 42.5991 74.2555 38.6059 74.2555 33.6976C74.2555 28.7892 78.2409 24.7969 83.1406 24.7969C88.0403 24.7969 92.0266 28.7892 92.0266 33.6976C92.0266 38.6059 88.0412 42.5991 83.1406 42.5991ZM83.1406 27.7638C79.8738 27.7638 77.2172 30.4251 77.2172 33.6976C77.2172 36.9709 79.8738 39.6322 83.1406 39.6322C86.4082 39.6322 89.0648 36.9709 89.0648 33.6976C89.0648 30.4251 86.4082 27.7638 83.1406 27.7638Z" fill="#4C241D"/>
<path d="M85.8652 33.6991C85.8652 35.2067 84.6458 36.4283 83.1408 36.4283C81.6367 36.4283 80.4172 35.2067 80.4172 33.6991C80.4172 32.1923 81.6367 30.9707 83.1408 30.9707C84.6458 30.9707 85.8652 32.1923 85.8652 33.6991Z" fill="#9DC1E4"/>
<path d="M83.1408 37.9116C80.8231 37.9116 78.9359 36.0211 78.9359 33.6986C78.9359 31.3768 80.8231 29.4863 83.1408 29.4863C85.4593 29.4863 87.3465 31.3768 87.3465 33.6986C87.3465 36.0211 85.4593 37.9116 83.1408 37.9116ZM83.1408 32.4532C82.4552 32.4532 81.8976 33.0126 81.8976 33.6986C81.8976 34.3853 82.4561 34.9447 83.1408 34.9447C83.8263 34.9447 84.3848 34.3853 84.3848 33.6986C84.3848 33.0126 83.8272 32.4532 83.1408 32.4532Z" fill="#4C241D"/>
<path d="M22.5132 16.0614C22.1437 16.0614 21.7751 15.9247 21.4887 15.648C20.8972 15.0818 20.8769 14.1429 21.4438 13.552L27.2765 7.45441C27.8434 6.86103 28.7807 6.84151 29.3696 7.40942C29.9611 7.97563 29.9806 8.91451 29.4145 9.50535L23.5818 15.603C23.2911 15.9077 22.9013 16.0614 22.5132 16.0614Z" fill="#4C241D"/>
<path d="M29.8263 11.4457C29.4475 11.4457 29.0688 11.3006 28.7789 11.0111L25.8172 8.04419C25.2393 7.46439 25.2393 6.52551 25.8172 5.94657C26.3952 5.36677 27.3333 5.36677 27.9112 5.94657L30.8729 8.91346C31.4517 9.49241 31.4517 10.4313 30.8729 11.0111C30.5839 11.3006 30.2051 11.4457 29.8263 11.4457Z" fill="#4C241D"/>
<path d="M9.00263 16.0614C8.61282 16.0614 8.22386 15.9077 7.9332 15.603L2.10132 9.50535C1.5344 8.91451 1.55389 7.97563 2.14623 7.40942C2.73264 6.84151 3.67157 6.86103 4.23849 7.45441L10.0712 13.552C10.6381 14.1429 10.6178 15.0818 10.0263 15.648C9.73988 15.9247 9.37126 16.0614 9.00263 16.0614Z" fill="#4C241D"/>
<path d="M1.68825 11.4457C1.30945 11.4457 0.930662 11.3006 0.640848 11.0111C0.0629141 10.4313 0.0629141 9.49241 0.640848 8.91346L3.60339 5.94657C4.18133 5.36677 5.11856 5.36677 5.69734 5.94657C6.27528 6.52551 6.27528 7.46439 5.69734 8.04419L2.73565 11.0111C2.44583 11.3006 2.06704 11.4457 1.68825 11.4457Z" fill="#4C241D"/>
<path d="M16.4976 9.96123C15.679 9.96123 15.0172 9.29824 15.0172 8.47821V2.54357C15.0172 1.72354 15.679 1.06055 16.4976 1.06055C17.3162 1.06055 17.9789 1.72354 17.9789 2.54357V8.47821C17.9789 9.29824 17.3162 9.96123 16.4976 9.96123Z" fill="#4C241D"/>
<path d="M29.9814 21.8846C29.9814 29.6859 23.6682 36.0102 15.8813 36.0102C8.09361 36.0102 1.78125 29.6859 1.78125 21.8846C1.78125 14.084 8.09361 7.75977 15.8813 7.75977C23.6682 7.75977 29.9814 14.084 29.9814 21.8846Z" fill="white"/>
<path d="M15.8814 37.4947C7.28949 37.4947 0.300049 30.4921 0.300049 21.8852C0.300049 13.279 7.28949 6.27734 15.8814 6.27734C24.4724 6.27734 31.4619 13.279 31.4619 21.8852C31.4619 30.4921 24.4724 37.4947 15.8814 37.4947ZM15.8814 9.24424C8.92245 9.24424 3.26175 14.9149 3.26175 21.8852C3.26175 28.8572 8.92245 34.5269 15.8814 34.5269C22.8395 34.5269 28.5002 28.8572 28.5002 21.8852C28.5002 14.9149 22.8395 9.24424 15.8814 9.24424Z" fill="#4C241D"/>
<path d="M10.7883 27.4781C10.2892 27.4781 9.80196 27.226 9.52232 26.7684C9.09607 26.0681 9.31724 25.1555 10.0147 24.7285L15.0169 21.6682V14.4127C15.0169 13.5927 15.6788 12.9297 16.4974 12.9297C17.316 12.9297 17.9786 13.5927 17.9786 14.4127V22.5001C17.9786 23.0171 17.7092 23.4968 17.2702 23.7667L11.5586 27.2608C11.3171 27.4085 11.051 27.4781 10.7883 27.4781Z" fill="#4C241D"/>
<path d="M19.4587 4.02744H13.5354C12.7168 4.02744 12.0541 3.36361 12.0541 2.54357C12.0541 1.72354 12.7168 1.06055 13.5354 1.06055H19.4587C20.2773 1.06055 20.94 1.72354 20.94 2.54357C20.94 3.36361 20.2773 4.02744 19.4587 4.02744Z" fill="#4C241D"/>
<path d="M55.0722 30.7309C54.2536 30.7309 53.5909 30.0671 53.5909 29.247C53.5909 26.7555 51.5664 24.7267 49.0784 24.7267C48.2598 24.7267 47.5972 24.0637 47.5972 23.2436C47.5972 22.4236 48.2598 21.7598 49.0784 21.7598C53.2002 21.7598 56.5526 25.118 56.5526 29.247C56.5526 30.0671 55.8908 30.7309 55.0722 30.7309Z" fill="#4C241D"/>
<path d="M13.5356 66.3371C11.0858 66.3371 9.09265 64.3405 9.09265 61.8863C9.09265 59.4321 11.0858 57.4355 13.5356 57.4355C15.9855 57.4355 17.9786 59.4321 17.9786 61.8863C17.9786 64.3405 15.9855 66.3371 13.5356 66.3371ZM13.5356 60.4033C12.7187 60.4033 12.0543 61.068 12.0543 61.8863C12.0543 62.7055 12.7187 63.3702 13.5356 63.3702C14.3525 63.3702 15.0169 62.7055 15.0169 61.8863C15.0169 61.068 14.3534 60.4033 13.5356 60.4033Z" fill="#4C241D"/>
<path d="M68.3307 14.4113C65.8808 14.4113 63.8877 12.4147 63.8877 9.96054C63.8877 7.50637 65.8808 5.50977 68.3307 5.50977C70.7805 5.50977 72.7736 7.50637 72.7736 9.96054C72.7736 12.4147 70.7814 14.4113 68.3307 14.4113ZM68.3307 8.47751C67.5138 8.47751 66.8502 9.1422 66.8502 9.96054C66.8502 10.7797 67.5138 11.4444 68.3307 11.4444C69.1476 11.4444 69.8119 10.7797 69.8119 9.96054C69.8119 9.1422 69.1484 8.47751 68.3307 8.47751Z" fill="#4C241D"/>
<path d="M22.4201 79.69C22.1108 79.69 21.7998 79.5924 21.5337 79.3929C20.8786 78.9014 20.7456 77.9719 21.2371 77.3165L25.6801 71.3827C26.1716 70.7274 27.0986 70.5941 27.7528 71.0856C28.4079 71.5763 28.5409 72.5067 28.0494 73.1612L23.6065 79.0958C23.3158 79.4855 22.8718 79.69 22.4201 79.69Z" fill="#4C241D"/>
<path d="M59.4469 61.8845C58.9029 61.8845 58.3809 61.5848 58.1207 61.0645L55.159 55.1307C54.793 54.3972 55.0895 53.5067 55.8217 53.14C56.553 52.7767 57.4428 53.0704 57.808 53.8038L60.7706 59.7376C61.1358 60.4711 60.8401 61.3616 60.1079 61.7283C59.8952 61.8336 59.6698 61.8845 59.4469 61.8845Z" fill="#4C241D"/>
<path d="M68.331 76.7228C67.9522 76.7228 67.5734 76.5776 67.2844 76.2873C66.7056 75.7084 66.7056 74.7695 67.2844 74.1897L71.7266 69.7389C72.3053 69.16 73.2426 69.16 73.8213 69.7389C74.3993 70.3187 74.3993 71.2576 73.8213 71.8374L69.3784 76.2873C69.0894 76.5776 68.7106 76.7228 68.331 76.7228Z" fill="#4C241D"/>
<path d="M7.61056 45.5673C7.30126 45.5673 6.99026 45.4705 6.72417 45.2702L0.799927 40.8203C0.144879 40.3287 0.011835 39.3983 0.503333 38.7439C0.993984 38.0868 1.92275 37.9569 2.5761 38.4467L8.50034 42.8975C9.15539 43.3882 9.28843 44.3186 8.79694 44.9731C8.50628 45.3635 8.06139 45.5673 7.61056 45.5673Z" fill="#4C241D"/>
<path d="M9.09448 90.0745C8.64281 90.0745 8.19877 89.8699 7.90811 89.4803L3.46598 83.5465C2.97364 82.8911 3.10668 81.9616 3.76258 81.4701C4.41424 80.9777 5.34384 81.1076 5.8345 81.7672L10.2775 87.701C10.769 88.3563 10.6368 89.2859 9.98088 89.7774C9.71479 89.9777 9.40379 90.0745 9.09448 90.0745Z" fill="#4C241D"/>
</g>
<defs>
<clipPath id="clip0_2402:9888">
<rect width="91.8196" height="91.9807" fill="white" transform="translate(0.207031 0.353516)"/>
</clipPath>
</defs>
</svg>
