
<svg height='300px' width='300px'  fill="#43a3fb" xmlns="http://www.w3.org/2000/svg" data-name="Layer 1" viewBox="0 0 100 100" x="0px" y="0px"><title>Telemed Chat</title><path d="M61.09,8.55H36.7a12,12,0,0,0-12,12V79.67a12,12,0,0,0,12,12H61.09a12,12,0,0,0,12-12V20.55A12,12,0,0,0,61.09,8.55ZM48.65,11.81H56.4a1,1,0,0,1,0,2H48.65a1,1,0,0,1,0-2ZM45,11.87a.94.94,0,1,1-.94.94A.94.94,0,0,1,45,11.87ZM48.9,90.14a3.57,3.57,0,1,1,3.56-3.57A3.57,3.57,0,0,1,48.9,90.14ZM69.12,77a3.73,3.73,0,0,1-3.74,3.74H33.2A3.74,3.74,0,0,1,29.45,77V20.1a3.75,3.75,0,0,1,3.75-3.75H65.38a3.74,3.74,0,0,1,3.74,3.75Z"></path><path d="M65.52,23.12l4-6.5a.5.5,0,0,0-.85-.53l-3.71,6Z"></path><path d="M52.39,42.41l-24,38.77a.49.49,0,0,0,.16.69.48.48,0,0,0,.26.07.5.5,0,0,0,.43-.24L53.29,42.86Z"></path><path d="M61.45,19.67H55.67a5.87,5.87,0,0,0-5.6,6.1v2.84c-.79,1.09-3.12,2.08-4.69,2.75l-.85.38a.49.49,0,0,0-.3.44.52.52,0,0,0,.28.46,17.43,17.43,0,0,0,5.56.88v4.65a5.88,5.88,0,0,0,5.6,6.11h5.78a5.88,5.88,0,0,0,5.6-6.11V25.77A5.87,5.87,0,0,0,61.45,19.67Zm4.6,18.5a4.88,4.88,0,0,1-4.6,5.11H55.67a4.88,4.88,0,0,1-4.6-5.11V33a.5.5,0,0,0-.5-.5h0a22.68,22.68,0,0,1-4.38-.41c1.79-.77,4-1.79,4.83-3.1a.47.47,0,0,0,.07-.34v-2.9a4.87,4.87,0,0,1,4.6-5.1h5.78a4.87,4.87,0,0,1,4.6,5.1Z"></path><path d="M62.4,25H54.34A.38.38,0,0,1,54,24.6a.37.37,0,0,1,.38-.37H62.4a.37.37,0,0,1,.38.37A.38.38,0,0,1,62.4,25Z"></path><path d="M62.4,28.66H54.34a.38.38,0,1,1,0-.75H62.4a.38.38,0,1,1,0,.75Z"></path><path d="M62.4,32.35H54.34A.38.38,0,0,1,54,32a.37.37,0,0,1,.38-.37H62.4a.37.37,0,0,1,.38.37A.38.38,0,0,1,62.4,32.35Z"></path><path d="M62.4,36H53.88a.38.38,0,0,1,0-.75H62.4a.38.38,0,1,1,0,.75Z"></path><path d="M62.78,39.72h-8.9a.38.38,0,0,1-.37-.38.37.37,0,0,1,.37-.37h8.9a.36.36,0,0,1,.37.37A.37.37,0,0,1,62.78,39.72Z"></path><path d="M42.21,44.73a.23.23,0,0,1-.22-.15l-2.51-7.12a.2.2,0,0,1,0-.21.22.22,0,0,1,.18-.1c.33,0,.49-.53.49-.54l.32-2.37a.24.24,0,0,1,.26-.19.23.23,0,0,1,.19.26l-.33,2.39a1.28,1.28,0,0,1-.63.85l2.22,6.27,2.22-6.31a1.32,1.32,0,0,1-.63-.78l-.34-2.43a.23.23,0,0,1,.2-.26.22.22,0,0,1,.25.2l.33,2.4h0s.16.47.49.47a.23.23,0,0,1,.19.1.26.26,0,0,1,0,.21l-2.53,7.16A.23.23,0,0,1,42.21,44.73Z"></path><path d="M36.94,68.46H33.43a.34.34,0,0,1-.34-.34V41.34a4.71,4.71,0,0,1,4.69-4.7h1.78a.36.36,0,0,1,.32.23l2.52,7.27a.52.52,0,0,1,0,.11l0,15.38a.34.34,0,1,1-.68,0V52l0-7.73-2.43-7H37.78a4,4,0,0,0-4,4V67.78h3.16a.34.34,0,0,1,0,.68Z"></path><path d="M42.28,60.26a.35.35,0,0,1-.34-.35V52L42,44.25a.52.52,0,0,1,0-.11l2.52-7.27a.36.36,0,0,1,.32-.23h1.78a4.71,4.71,0,0,1,4.69,4.7v4a.35.35,0,0,1-.34.35.35.35,0,0,1-.35-.35v-4a4,4,0,0,0-4-4H45.1l-2.42,7-.06,15.6A.35.35,0,0,1,42.28,60.26Z"></path><path d="M39.36,45.61h-.87a.34.34,0,0,1,0-.68h.57c0-.24,0-.48,0-.72,0-1.92-.84-3.54-1.83-3.54s-1.83,1.62-1.83,3.54a5.37,5.37,0,0,0,0,.7h.61a.35.35,0,0,1,0,.69h-.91a.34.34,0,0,1-.34-.29,6.71,6.71,0,0,1-.09-1.1c0-2.37,1.11-4.22,2.52-4.22s2.51,1.85,2.51,4.22a8.05,8.05,0,0,1-.08,1.11A.34.34,0,0,1,39.36,45.61Z"></path><path d="M37,40.67a.35.35,0,0,1-.35-.34,5.76,5.76,0,0,1,1.25-3.56.35.35,0,0,1,.48-.05.34.34,0,0,1,.06.48,5,5,0,0,0-1.1,3.13A.34.34,0,0,1,37,40.67Z"></path><path d="M47.76,40.67a.34.34,0,0,1-.34-.34,5,5,0,0,0-1.15-3.19.34.34,0,0,1,0-.48.35.35,0,0,1,.48,0,5.72,5.72,0,0,1,1.3,3.63A.34.34,0,0,1,47.76,40.67Z"></path><path d="M47.76,43.12a1.57,1.57,0,1,1,1.57-1.56A1.57,1.57,0,0,1,47.76,43.12Zm0-2.45a.89.89,0,1,0,.88.89A.88.88,0,0,0,47.76,40.67Z"></path><path d="M39.83,57.65H35.42a.35.35,0,0,1-.35-.34V52.55a.35.35,0,0,1,.35-.34h4.41a.35.35,0,0,1,.35.34v4.76A.35.35,0,0,1,39.83,57.65ZM35.76,57h3.73V52.9H35.76Z"></path><path d="M39.07,52.9a.35.35,0,0,1-.34-.35v-1H36.81v1a.35.35,0,1,1-.69,0V51.24a.35.35,0,0,1,.35-.34h2.6a.34.34,0,0,1,.34.34v1.31A.35.35,0,0,1,39.07,52.9Z"></path><path d="M33.43,52.24H30a.34.34,0,0,1-.25-.11.35.35,0,0,1-.09-.26C30.44,41.1,34,38.45,34.19,38.35a.34.34,0,1,1,.4.56s-3.42,2.57-4.26,12.65h3.1a.34.34,0,1,1,0,.68Z"></path><path d="M31.71,55.25a1.85,1.85,0,1,1,1.85-1.85A1.85,1.85,0,0,1,31.71,55.25Zm0-3a1.17,1.17,0,1,0,1.16,1.16A1.16,1.16,0,0,0,31.71,52.24Z"></path><path d="M48.5,47.65H45.8a.82.82,0,0,1-.82-.82v-1A.82.82,0,0,1,45.8,45h2.7a.82.82,0,0,1,.82.82v1A.82.82,0,0,1,48.5,47.65Zm-2.7-1.94a.14.14,0,0,0-.14.13v1a.14.14,0,0,0,.14.13h2.7a.13.13,0,0,0,.13-.13v-1a.13.13,0,0,0-.13-.13Z"></path><path d="M42.15,44.88a.37.37,0,0,1-.35-.25l-2.6-7.36a.39.39,0,0,1,0-.35.36.36,0,0,1,.31-.15c.18,0,.32-.33.36-.44l.33-2.45a.38.38,0,0,1,.42-.32A.37.37,0,0,1,41,34l-.34,2.48v0a1.58,1.58,0,0,1-.61.88l2.11,6,2.13-6a1.47,1.47,0,0,1-.62-.83.07.07,0,0,0,0,0L43.31,34a.38.38,0,0,1,.32-.42.37.37,0,0,1,.42.32l.34,2.45c0,.11.18.4.37.4a.37.37,0,0,1,.31.16.38.38,0,0,1,0,.34l-2.61,7.41A.39.39,0,0,1,42.15,44.88Z"></path><path d="M46.63,31.19a5.69,5.69,0,0,0,1.11-3.39,5.74,5.74,0,1,0-2.27,4.58l.64.31a6.39,6.39,0,1,1,2.28-4.89,6.24,6.24,0,0,1-.82,3.13Z"></path><path d="M48.07,28.13a6.41,6.41,0,0,1-4.63-2.25c-.67.7-2.69,2.25-7.52,2.25a.32.32,0,0,1-.32-.33.32.32,0,0,1,.32-.32c5.72,0,7.23-2.26,7.24-2.29a.36.36,0,0,1,.27-.15.35.35,0,0,1,.27.13,6,6,0,0,0,4.37,2.31.32.32,0,0,1,.33.32A.33.33,0,0,1,48.07,28.13Z"></path><path d="M35.66,37.31h0a.33.33,0,0,1-.31-.34l.45-7.28a1.12,1.12,0,0,1-1-1.1,1.11,1.11,0,0,1,1.11-1.11.32.32,0,0,1,.33.32.33.33,0,0,1-.33.33.46.46,0,0,0-.46.46A.47.47,0,0,0,36,29a.37.37,0,0,1,.29.06.36.36,0,0,1,.12.28L36,37A.32.32,0,0,1,35.66,37.31Z"></path><path d="M35.66,37.57l.46-8.22h0a6.33,6.33,0,0,0,4.57,4.72h0l-.3,2.31s-.17.69-.63.69l-.12-.38H38.05a3.68,3.68,0,0,0-2.39.89"></path><path d="M46.05,32.62a5.92,5.92,0,0,1-2.67,1.45h0l.3,2.31s.16.69.63.69l.12-.38H46a3.68,3.68,0,0,1,2.39.89l-.31-4.64Z"></path><path d="M47.38,30.87a7.28,7.28,0,0,0,.56-1.52h0L48,30.66Z"></path><path d="M47.64,31l-.1-1.65a.33.33,0,0,1,.12-.28A.37.37,0,0,1,48,29a.46.46,0,0,0,.57-.44.45.45,0,0,0-.46-.46.32.32,0,0,1-.32-.33.32.32,0,0,1,.32-.32,1.1,1.1,0,0,1,1.11,1.11,1.12,1.12,0,0,1-1,1.1l.06,1Z"></path><path d="M48.4,32.81l.25,4.12a.33.33,0,0,1-.3.35h0A.33.33,0,0,1,48,37l-.25-4.16Z"></path><circle cx="39.88" cy="29.12" r="0.51"></circle><circle cx="44.23" cy="29.12" r="0.51"></circle><path d="M35.92,27.8c6,0,7.52-2.43,7.52-2.43a6.3,6.3,0,0,0,4.63,2.43,6.07,6.07,0,1,0-12.14,0"></path><path d="M56,62.81a7.58,7.58,0,1,1,7.58-7.58A7.59,7.59,0,0,1,56,62.81Zm0-14.38a6.8,6.8,0,1,0,6.8,6.8A6.81,6.81,0,0,0,56,48.43Z"></path><path d="M46.61,81.94a.48.48,0,0,1-.48-.49V69.94a5.17,5.17,0,0,1,5.16-5.17H52a.49.49,0,1,1,0,1h-.74a4.2,4.2,0,0,0-4.19,4.19V81.45A.49.49,0,0,1,46.61,81.94Z"></path><path d="M65.49,81.94a.49.49,0,0,1-.49-.49V69.94a4.2,4.2,0,0,0-4.19-4.19h-.74a.49.49,0,0,1,0-1h.74A5.17,5.17,0,0,1,66,69.94V81.45A.48.48,0,0,1,65.49,81.94Z"></path><path d="M63.32,55.42c-1.14,0-6.88-.13-9-2.8a7.75,7.75,0,0,1-5.56,2.8.2.2,0,0,1-.19-.19.2.2,0,0,1,.19-.2,7.46,7.46,0,0,0,5.41-2.84.18.18,0,0,1,.15-.08.21.21,0,0,1,.17.09S56.34,55,63.32,55a.2.2,0,1,1,0,.39Zm0-.19Zm0,0Zm-14.56,0Zm5.55-2.86h0a.12.12,0,0,1,.08,0c.35.47,2.45,2.81,8.93,2.82-7.13,0-9-2.9-9-2.92a6,6,0,0,1-.39.46l.31-.36A.09.09,0,0,1,54.3,52.37Zm-5.55,2.86Zm0,0Z"></path><path d="M48.74,57.6a1.43,1.43,0,1,1,0-2.86.49.49,0,0,1,.48.49.48.48,0,0,1-.48.48.46.46,0,0,0-.46.46.47.47,0,0,0,.57.44.49.49,0,1,1,.25.94A1.49,1.49,0,0,1,48.74,57.6Z"></path><path d="M63.32,57.6a1.42,1.42,0,0,1-.36-.05.49.49,0,1,1,.24-.94.46.46,0,1,0,.12-.9.48.48,0,0,1-.49-.48.49.49,0,0,1,.49-.49,1.43,1.43,0,0,1,0,2.86Z"></path><path d="M53.49,56.29a.52.52,0,0,0-.52.52.53.53,0,0,0,.52.52.52.52,0,0,0,.52-.52A.52.52,0,0,0,53.49,56.29Z"></path><path d="M58.71,56.29a.52.52,0,0,0-.52.52.53.53,0,0,0,.52.52.52.52,0,0,0,.52-.52A.52.52,0,0,0,58.71,56.29Z"></path><path d="M43.65,81.81a.49.49,0,0,1-.49-.47c-.23-6.19,1.17-10.09,2.37-12.26a9.53,9.53,0,0,1,2.8-3.37.48.48,0,0,1,.37-.06.46.46,0,0,1,.3.21.44.44,0,0,1,.07.37.49.49,0,0,1-.21.3s-5.14,3.54-4.72,14.77a.49.49,0,0,1-.47.51Zm.29-.5h0Zm4.81-14.94Zm-.31-.49h0Z"></path><path d="M68.61,81.94h0a.49.49,0,0,1-.49-.5c.22-6-1.1-9.68-2.24-11.75a9.09,9.09,0,0,0-2.48-3,.49.49,0,0,1-.15-.67.49.49,0,0,1,.31-.21.44.44,0,0,1,.37.07s5.6,3.72,5.17,15.62A.49.49,0,0,1,68.61,81.94ZM63.82,66Z"></path><path d="M56,68.59c-2.48,0-4.51-1.49-4.51-3.33a.49.49,0,0,1,1,0c0,1.3,1.58,2.35,3.53,2.35s3.53-1,3.53-2.35a.49.49,0,1,1,1,0C60.54,67.1,58.52,68.59,56,68.59Z"></path><path d="M51.2,75.61a.5.5,0,0,1-.27-.07l-1.78-1.16a.5.5,0,0,1-.22-.41V71.59a.49.49,0,0,1,.49-.49H53a.49.49,0,0,1,.49.49V74a.5.5,0,0,1-.22.41l-1.78,1.16A.48.48,0,0,1,51.2,75.61Zm.16-.73Zm-1.65-1.07,1.49,1,1.48-1V71.88h-3Z"></path><path d="M52.2,66.61l-.14,0a.5.5,0,0,1-.29-.23.48.48,0,0,1,0-.37l1.18-4.11a.48.48,0,0,1,.23-.29.44.44,0,0,1,.37,0,.44.44,0,0,1,.29.23.47.47,0,0,1,0,.37l-1.17,4.11A.5.5,0,0,1,52.2,66.61Zm1.46-4.52Z"></path><path d="M59.85,66.61a.5.5,0,0,1-.47-.35l-1.17-4.11a.47.47,0,0,1,0-.37.51.51,0,0,1,.3-.24.46.46,0,0,1,.36.05.46.46,0,0,1,.24.29L60.32,66a.48.48,0,0,1-.33.6Zm.28-.57h0Z"></path><path d="M63.32,55.32c-7.22,0-9-2.92-9-2.92a7.57,7.57,0,0,1-5.56,2.92,7.29,7.29,0,0,1,14.58,0"></path></svg>
