
<svg height='300px' width='300px'  fill="#43a3fb" xmlns="http://www.w3.org/2000/svg" viewBox="0 0 64 64" x="0px" y="0px"><title>telemedicine, hospital, service, consult, medical</title><g><g><path d="M15,36a6.006,6.006,0,0,0,6-6V28A6,6,0,0,0,9,28v2A6.006,6.006,0,0,0,15,36Zm-4-8a4,4,0,0,1,8,0v2a4,4,0,0,1-8,0Z"></path><path d="M26.223,37.371a1,1,0,0,0,1.554,1.259,6.5,6.5,0,0,1,10.446,0,1,1,0,0,0,1.554-1.259,8.5,8.5,0,0,0-13.554,0Z"></path><path d="M37.085,41.811a1,1,0,0,0,.227-1.4A5.392,5.392,0,0,0,33,38a5.392,5.392,0,0,0-4.312,2.415,1,1,0,0,0,1.624,1.17A3.38,3.38,0,0,1,33,40a3.38,3.38,0,0,1,2.688,1.585,1,1,0,0,0,1.4.226Z"></path><path d="M33.02,42h-.01a1.005,1.005,0,1,0,.01,0Z"></path><path d="M33,46H27.941A9.01,9.01,0,0,0,19,38H11a9.01,9.01,0,0,0-9,9v8a7.008,7.008,0,0,0,7,7H31a1,1,0,0,0,.99-.858l2-14A1,1,0,0,0,33,46ZM8.145,59.914A5,5,0,0,1,4,55V47a7.008,7.008,0,0,1,7-7h8a7.006,7.006,0,0,1,6.92,6H11a1,1,0,0,0-.99.859ZM30.133,60H10.153l1.714-12h19.98Z"></path><path d="M21,51a3,3,0,1,0,3,3A3,3,0,0,0,21,51Zm0,4a1,1,0,1,1,1-1A1,1,0,0,1,21,55Z"></path><path d="M40.457,53.389a22.93,22.93,0,0,1-3.664,1.1,1,1,0,0,0,.414,1.957,24.853,24.853,0,0,0,3.986-1.2,1,1,0,1,0-.736-1.859Z"></path><path d="M55.744,35.655a1,1,0,0,0-1.174.789,22.859,22.859,0,0,1-1.049,3.681,1,1,0,0,0,1.872.707,25.055,25.055,0,0,0,1.14-4A1,1,0,0,0,55.744,35.655Z"></path><path d="M53.24,43.22a1,1,0,0,0-1.368.36,23.078,23.078,0,0,1-2.2,3.134,1,1,0,0,0,1.537,1.28,25.158,25.158,0,0,0,2.39-3.406A1,1,0,0,0,53.24,43.22Z"></path><path d="M46.986,49.442a22.941,22.941,0,0,1-3.1,2.246A1,1,0,0,0,44.922,53.4a25.073,25.073,0,0,0,3.369-2.443,1,1,0,0,0-1.3-1.515Z"></path><path d="M17.2,14.11a.994.994,0,0,0,.617-.213,23,23,0,0,1,3.2-2.105,1,1,0,0,0-.957-1.756,25.062,25.062,0,0,0-3.476,2.288A1,1,0,0,0,17.2,14.11Z"></path><path d="M24.19,10.306a1,1,0,0,0,.325-.055,23.07,23.07,0,0,1,2.692-.743,1,1,0,1,0-.414-1.957,25.023,25.023,0,0,0-2.927.809,1,1,0,0,0,.324,1.946Z"></path><path d="M11.3,19.841a.989.989,0,0,0,.539.159,1,1,0,0,0,.843-.459,22.927,22.927,0,0,1,2.33-3.037,1,1,0,1,0-1.479-1.346A25.028,25.028,0,0,0,11,18.46,1,1,0,0,0,11.3,19.841Z"></path><path d="M47,11h1a1,1,0,0,0,0-2H47V8a1,1,0,0,0-2,0V9H44a1,1,0,0,0,0,2h1v1a1,1,0,0,0,2,0Z"></path><path d="M49,16H48a1,1,0,0,0,0,2h1a1,1,0,0,0,0-2Z"></path><path d="M44,16H43a1,1,0,0,0,0,2h1a1,1,0,0,0,0-2Z"></path><path d="M49,20H48a1,1,0,0,0,0,2h1a1,1,0,0,0,0-2Z"></path><path d="M44,20H43a1,1,0,0,0,0,2h1a1,1,0,0,0,0-2Z"></path><path d="M49,24H48a1,1,0,0,0,0,2h1a1,1,0,0,0,0-2Z"></path><path d="M44,24H43a1,1,0,0,0,0,2h1a1,1,0,0,0,0-2Z"></path><path d="M61,12H54V3a1,1,0,0,0-1-1H39a1,1,0,0,0-1,1v9H31a1,1,0,0,0-1,1V29a1,1,0,0,0,1,1H61a1,1,0,0,0,1-1V13A1,1,0,0,0,61,12Zm-7,6h6v2H54Zm0,4h6v2H54Zm6-8v2H54V14ZM38,20H32V18h6Zm-6,2h6v2H32Zm0-8h6v2H32Zm0,12h6v2H32ZM40,4H52V28H40ZM54,28V26h6v2Z"></path></g></g></svg>
