<svg width="93" height="93" viewBox="0 0 93 93" fill="none" xmlns="http://www.w3.org/2000/svg">
<g clip-path="url(#clip0_2402:9848)">
<path d="M46.1724 75.3613C30.8673 75.3613 18.4602 62.9325 18.4602 47.6006V11.1414C18.4602 5.00869 23.4231 0.0371094 29.5451 0.0371094H62.7996C68.9216 0.0371094 73.8845 5.00869 73.8845 11.1414V47.6006C73.8845 62.9325 61.4774 75.3613 46.1724 75.3613Z" fill="#42999B"/>
<path d="M62.7999 5.58984H57.2574L60.0287 55.9294L57.2574 66.8284C63.8788 62.9828 68.3423 55.8046 68.3423 47.6012V11.142C68.3423 8.08054 65.856 5.58984 62.7999 5.58984Z" fill="#4EF5E9"/>
<path d="M62.7997 11.142C62.7997 8.08054 60.3134 5.58984 57.2573 5.58984H29.5451C26.489 5.58984 24.0027 8.08054 24.0027 11.142V47.6012C24.0027 55.8046 28.4662 62.9828 35.0876 66.8284V64.2576C35.0876 61.1912 37.5689 58.7055 40.63 58.7055H51.7148C54.7759 58.7055 57.2573 61.1912 57.2573 64.2576V66.8284C60.568 62.9828 62.7997 55.8046 62.7997 47.6012V37.8849L51.7148 24.5134L62.7997 11.142Z" fill="#9BFEF7"/>
<path d="M57.2571 11.1406L46.1722 24.5121L57.2571 37.8835H62.7995V11.1406H57.2571Z" fill="#46B8B5"/>
<path d="M29.545 11.1406H57.2572V37.8835H29.545V11.1406Z" fill="#4AD6CF"/>
<path d="M51.7148 80.9128V90.6291C51.7148 91.3956 51.0944 92.0171 50.3292 92.0171H46.1723L43.4011 78.1367L51.7148 80.9128Z" fill="#9BFEF7"/>
<path d="M46.1723 78.1367V92.0171H42.0155C41.2503 92.0171 40.6299 91.3956 40.6299 90.6291V80.9128L46.1723 78.1367Z" fill="#DBFFFC"/>
<path d="M46.1723 87.8542C46.9376 87.8542 47.5579 87.2328 47.5579 86.4662C47.5579 85.6996 46.9376 85.0781 46.1723 85.0781C45.4071 85.0781 44.7867 85.6996 44.7867 86.4662C44.7867 87.2328 45.4071 87.8542 46.1723 87.8542Z" fill="#46B8B5"/>
<path d="M51.7148 64.2578V80.9143H46.1723L43.4011 72.586L46.1723 64.2578H51.7148Z" fill="#FFD959"/>
<path d="M40.6299 64.2578H46.1723V80.9143H40.6299V64.2578Z" fill="#FFEAA6"/>
<path d="M33.7019 51.7638C35.9976 51.7638 37.8587 49.8994 37.8587 47.5997C37.8587 45.2999 35.9976 43.4355 33.7019 43.4355C31.4061 43.4355 29.545 45.2999 29.545 47.5997C29.545 49.8994 31.4061 51.7638 33.7019 51.7638Z" fill="white"/>
<path d="M58.6427 51.7638C60.9384 51.7638 62.7995 49.8994 62.7995 47.5997C62.7995 45.2999 60.9384 43.4355 58.6427 43.4355C56.3469 43.4355 54.4858 45.2999 54.4858 47.5997C54.4858 49.8994 56.3469 51.7638 58.6427 51.7638Z" fill="white"/>
<path d="M50.7993 23.7231L46.1723 16.6934L43.4011 26.7798L46.1723 32.3319C49.2334 32.3319 51.7148 29.8462 51.7148 26.7798C51.7148 25.6501 51.3771 24.6 50.7993 23.7231Z" fill="#EA1726"/>
<path d="M41.5453 23.7231C40.9674 24.5998 40.6299 25.6501 40.6299 26.7798C40.6299 29.8462 43.1112 32.3319 46.1723 32.3319V16.6934L41.5453 23.7231Z" fill="#FF4547"/>
</g>
<defs>
<clipPath id="clip0_2402:9848">
<rect width="91.8196" height="91.9807" fill="white" transform="translate(0.262451 0.0371094)"/>
</clipPath>
</defs>
</svg>
