<svg width="30" height="30" viewBox="0 0 30 30" fill="none" xmlns="http://www.w3.org/2000/svg">
<rect x="0.25" y="0.25" width="29.5" height="29.5" rx="4.75" stroke="white" stroke-width="0.5"/>
<path d="M22 10.487C22 9.1658 20.8342 8 19.513 8H9.48704C8.1658 8 7 9.1658 7 10.487V20.5129C7 21.8342 8.1658 23 9.48704 23H14.5389V17.3264H12.6736V14.8394H14.5389V13.829C14.5389 12.1192 15.7824 10.6425 17.3368 10.6425H19.3575V13.1295H17.3368C17.1036 13.1295 16.8705 13.3627 16.8705 13.829V14.8394H19.3575V17.3264H16.8705V23H19.513C20.8342 23 22 21.8342 22 20.5129V10.487Z" fill="white"/>
</svg>
