<svg width="1707" height="535" viewBox="0 0 1707 535" fill="none" xmlns="http://www.w3.org/2000/svg">
<path d="M934.881 334.467C933.575 334.467 932.495 334.053 931.641 333.226C930.788 332.4 930.361 331.36 930.361 330.093V225.267C930.361 224.013 930.788 222.973 931.641 222.147C932.495 221.32 933.575 220.907 934.881 220.907C936.188 220.907 937.268 221.32 938.121 222.147C938.961 222.973 939.401 224.013 939.401 225.267V273.253H1015.43V225.267C1015.43 224.013 1015.85 222.973 1016.71 222.147C1017.56 221.32 1018.64 220.907 1019.95 220.907C1021.15 220.907 1022.2 221.32 1023.11 222.147C1024.01 222.973 1024.47 224.013 1024.47 225.267V330.093C1024.47 331.36 1024.01 332.4 1023.11 333.226C1022.2 334.053 1021.09 334.467 1019.8 334.467C1018.59 334.467 1017.56 334.053 1016.71 333.226C1015.85 332.4 1015.43 331.36 1015.43 330.093V281.107H939.401V330.093C939.401 331.36 938.961 332.4 938.121 333.226C937.268 334.053 936.188 334.467 934.881 334.467Z" fill="white"/>
<path d="M1059.09 334.467C1057.79 334.467 1056.71 334.053 1055.85 333.226C1055 332.4 1054.57 331.36 1054.57 330.093V225.267C1054.57 224.013 1055 222.973 1055.85 222.147C1056.71 221.32 1057.79 220.907 1059.09 220.907H1131.51C1132.72 220.907 1133.77 221.32 1134.67 222.147C1135.57 222.973 1136.03 224.013 1136.03 225.267C1136.03 226.427 1135.57 227.453 1134.67 228.32C1133.77 229.2 1132.72 229.626 1131.51 229.626H1063.61V273.253H1113.44C1114.75 273.253 1115.83 273.667 1116.68 274.48C1117.53 275.307 1117.96 276.36 1117.96 277.613C1117.96 278.867 1117.53 279.933 1116.68 280.813C1115.83 281.68 1114.75 282.12 1113.44 282.12H1063.61V325.733H1131.51C1132.72 325.733 1133.77 326.173 1134.67 327.053C1135.57 327.92 1136.03 328.933 1136.03 330.093C1136.03 331.36 1135.57 332.4 1134.67 333.226C1133.77 334.053 1132.72 334.467 1131.51 334.467H1059.09Z" fill="white"/>
<path d="M1161.32 305.96L1164.94 298.107H1227.57L1231.03 305.96H1161.32ZM1150.17 334.467C1148.27 334.467 1146.95 333.733 1146.19 332.28C1145.44 330.827 1145.41 329.467 1146.11 328.213L1191.74 223.96C1192.54 221.92 1193.99 220.907 1196.09 220.907C1198.11 220.907 1199.56 221.92 1200.47 223.96L1246.24 328.213C1247.04 329.573 1246.99 330.947 1246.08 332.347C1245.19 333.76 1243.88 334.467 1242.17 334.467C1241.16 334.467 1240.33 334.24 1239.69 333.813C1239.03 333.373 1238.45 332.666 1237.96 331.693L1193.69 229.773H1198.51L1154.4 331.693C1153.99 332.666 1153.44 333.373 1152.74 333.813C1152.03 334.24 1151.19 334.467 1150.17 334.467Z" fill="white"/>
<path d="M1268.21 334.467C1267.01 334.467 1265.96 334.053 1265.05 333.226C1264.15 332.4 1263.71 331.36 1263.71 330.093V225.267C1263.71 224.013 1264.15 222.973 1265.05 222.147C1265.96 221.32 1267.01 220.907 1268.21 220.907C1269.52 220.907 1270.6 221.32 1271.45 222.147C1272.31 222.973 1272.73 224.013 1272.73 225.267V326.613H1334.61C1336.01 326.613 1337.12 326.973 1337.93 327.707C1338.73 328.427 1339.13 329.373 1339.13 330.533C1339.13 331.693 1338.73 332.64 1337.93 333.373C1337.12 334.093 1336.01 334.467 1334.61 334.467H1268.21" fill="white"/>
<path d="M1372.25 334.467C1370.95 334.467 1369.87 334.053 1369.01 333.226C1368.16 332.4 1367.73 331.36 1367.73 330.093V220.907H1376.77V330.093C1376.77 331.36 1376.35 332.4 1375.49 333.226C1374.64 334.053 1373.56 334.467 1372.25 334.467V334.467ZM1329.64 228.76C1328.44 228.76 1327.47 228.4 1326.71 227.667C1325.96 226.947 1325.59 226 1325.59 224.84C1325.59 223.667 1325.96 222.72 1326.71 222C1327.47 221.267 1328.44 220.907 1329.64 220.907H1414.87C1416.07 220.907 1417.05 221.267 1417.8 222C1418.55 222.72 1418.93 223.667 1418.93 224.84C1418.93 226 1418.55 226.947 1417.8 227.667C1417.05 228.4 1416.07 228.76 1414.87 228.76H1329.64Z" fill="white"/>
<path d="M1440.76 334.467C1439.46 334.467 1438.38 334.053 1437.52 333.226C1436.67 332.4 1436.24 331.36 1436.24 330.093V225.267C1436.24 224.013 1436.67 222.973 1437.52 222.147C1438.38 221.32 1439.46 220.907 1440.76 220.907C1442.07 220.907 1443.15 221.32 1444 222.147C1444.86 222.973 1445.28 224.013 1445.28 225.267V273.253H1521.31V225.267C1521.31 224.013 1521.74 222.973 1522.59 222.147C1523.44 221.32 1524.52 220.907 1525.83 220.907C1527.03 220.907 1528.08 221.32 1528.99 222.147C1529.9 222.973 1530.35 224.013 1530.35 225.267V330.093C1530.35 331.36 1529.9 332.4 1528.99 333.226C1528.08 334.053 1526.98 334.467 1525.68 334.467C1524.47 334.467 1523.44 334.053 1522.59 333.226C1521.74 332.4 1521.31 331.36 1521.31 330.093V281.107H1445.28V330.093C1445.28 331.36 1444.86 332.4 1444 333.226C1443.15 334.053 1442.07 334.467 1440.76 334.467Z" fill="white"/>
<path d="M439.002 333.867C436.069 333.867 428.855 333.093 428.855 333.093C428.855 333.093 428.789 326.587 428.789 323.64V293L432.602 271.773L449.216 278.987V323.64C449.216 326.587 449.242 333.093 449.242 333.093C449.242 333.093 441.936 333.867 439.002 333.867ZM394.136 316.44C400.949 316.44 407.029 314.8 412.362 311.533C417.709 308.253 421.909 303.787 424.989 298.107C428.055 292.44 429.589 286.053 429.589 278.987C429.589 271.773 428.055 265.333 424.989 259.653C421.909 253.973 417.709 249.506 412.362 246.226C407.029 242.96 400.949 241.32 394.136 241.32C387.469 241.32 381.429 242.96 376.016 246.226C370.602 249.506 366.336 253.973 363.202 259.653C360.056 265.333 358.496 271.773 358.496 278.987C358.496 286.053 360.056 292.44 363.202 298.107C366.336 303.787 370.602 308.253 376.016 311.533C381.429 314.8 387.469 316.44 394.136 316.44ZM390.136 334.467C380.389 334.467 371.642 332.027 363.896 327.147C356.149 322.28 350.042 315.667 345.576 307.32C341.096 298.973 338.855 289.533 338.855 278.987C338.855 268.44 341.296 258.947 346.176 250.533C351.042 242.12 357.656 235.48 366.002 230.613C374.349 225.733 383.722 223.293 394.136 223.293C404.562 223.293 413.895 225.733 422.189 230.613C430.455 235.48 437.042 242.12 441.909 250.533C446.789 258.947 449.216 268.44 449.216 278.987H441.416C441.416 289.533 439.176 298.973 434.696 307.32C430.229 315.667 424.122 322.28 416.376 327.147C408.629 332.027 399.882 334.467 390.136 334.467Z" fill="white"/>
<path d="M519.521 334.467C512.841 334.467 506.841 332.76 501.494 329.347C496.147 325.947 491.947 321.306 488.881 315.426C485.801 309.56 484.267 302.947 484.267 295.6V200.067C484.267 197.133 485.201 194.72 487.067 192.853C488.947 190.987 491.347 190.053 494.281 190.053C497.227 190.053 499.627 190.987 501.494 192.853C503.361 194.72 504.294 197.133 504.294 200.067V295.6C504.294 300.947 505.761 305.413 508.707 309.026C511.641 312.626 515.241 314.426 519.521 314.426H526.334C528.734 314.426 530.774 315.373 532.441 317.24C534.107 319.107 534.947 321.507 534.947 324.44C534.947 327.387 534.854 333.893 534.854 333.893C534.854 333.893 526.601 334.467 523.134 334.467H519.521ZM475.054 246.133C472.254 246.133 469.974 245.333 468.241 243.733C466.507 242.12 465.641 240.12 465.641 237.72C465.641 235.053 466.507 232.92 468.241 231.307C469.974 229.707 472.254 228.907 475.054 228.907H521.321C524.134 228.907 526.401 229.707 528.134 231.307C529.867 232.92 530.734 235.053 530.734 237.72C530.734 240.12 529.867 242.12 528.134 243.733C526.401 245.333 524.134 246.133 521.321 246.133H475.054Z" fill="white"/>
<path d="M569.788 265.96C569.788 257.946 571.762 250.773 575.695 244.426C579.642 238.093 584.948 233.053 591.628 229.307C598.295 225.573 605.641 223.693 613.655 223.693C621.668 223.693 627.642 225 631.575 227.6C635.522 230.213 637.015 233.32 636.082 236.92C635.682 238.787 634.921 240.226 633.788 241.226C632.641 242.226 631.348 242.867 629.882 243.133C628.402 243.4 626.802 243.333 625.068 242.933C616.522 241.2 608.855 241.053 602.042 242.533C595.228 244 589.855 246.733 585.908 250.733C581.975 254.747 580.002 259.826 580.002 265.96H569.788ZM569.988 334.467C566.788 334.467 559.908 333.893 559.908 333.893C559.908 333.893 559.975 327.787 559.975 324.44V234.92C559.975 231.707 560.842 229.24 562.575 227.507C564.322 225.773 566.788 224.907 569.988 224.907C573.321 224.907 575.828 225.733 577.508 227.4C579.175 229.08 580.002 231.573 580.002 234.92V324.44C580.002 327.653 579.908 333.893 579.908 333.893C579.908 333.893 573.321 334.467 569.988 334.467" fill="white"/>
<path d="M296.041 334.467C293.094 334.467 285.868 333.893 285.868 333.893C285.868 333.893 285.828 327.187 285.828 324.253V235.12C285.828 232.04 286.788 229.573 288.735 227.707C290.668 225.84 293.094 224.907 296.041 224.907C299.108 224.907 301.574 225.84 303.454 227.707C305.321 229.573 306.254 232.04 306.254 235.12V324.253C306.254 327.187 306.241 333.893 306.241 333.893C306.241 333.893 299.108 334.467 296.041 334.467ZM296.041 207.08C292.428 207.08 289.334 205.773 286.721 203.173C284.121 200.56 282.814 197.467 282.814 193.853C282.814 190.253 284.121 187.147 286.721 184.547C289.334 181.933 292.428 180.64 296.041 180.64C299.641 180.64 302.748 181.933 305.348 184.547C307.961 187.147 309.254 190.253 309.254 193.853C309.254 197.467 307.961 200.56 305.348 203.173C302.748 205.773 299.641 207.08 296.041 207.08Z" fill="white"/>
<path d="M712.147 316.44C719.08 316.44 725.227 314.826 730.574 311.626C735.907 308.426 740.08 304.013 743.094 298.413C746.094 292.8 747.587 286.32 747.587 278.987C747.587 271.64 746.094 265.133 743.094 259.453C740.08 253.773 735.907 249.333 730.574 246.133C725.227 242.933 719.08 241.32 712.147 241.32C705.2 241.32 699.054 242.933 693.72 246.133C688.374 249.333 684.16 253.773 681.094 259.453C678.027 265.133 676.494 271.64 676.494 278.987C676.494 286.32 678.027 292.8 681.094 298.413C684.16 304.013 688.374 308.426 693.72 311.626C699.054 314.826 705.2 316.44 712.147 316.44ZM712.147 334.467C701.32 334.467 691.774 332.093 683.494 327.347C675.214 322.613 668.707 316.067 663.974 307.72C659.227 299.373 656.867 289.8 656.867 278.987C656.867 268.027 659.227 258.387 663.974 250.04C668.707 241.693 675.214 235.146 683.494 230.413C691.774 225.666 701.32 223.293 712.147 223.293C722.827 223.293 732.307 225.666 740.587 230.413C748.854 235.146 755.374 241.693 760.107 250.04C764.854 258.387 767.227 268.027 767.227 278.987C767.227 289.8 764.88 299.373 760.214 307.72C755.534 316.067 749.067 322.613 740.787 327.347C732.507 332.093 722.96 334.467 712.147 334.467" fill="white"/>
<path d="M890.202 334.467C887.255 334.467 879.962 333.693 879.962 333.693C879.962 333.693 879.988 327.187 879.988 324.24V274.973C879.988 267.36 878.588 261.16 875.775 256.346C872.975 251.533 869.202 247.973 864.468 245.626C859.722 243.293 854.282 242.12 848.135 242.12C842.535 242.12 837.455 243.267 832.921 245.533C828.375 247.8 824.775 250.84 822.095 254.64C819.428 258.453 818.095 262.826 818.095 267.76H805.482C805.482 259.346 807.508 251.84 811.588 245.226C815.655 238.626 821.228 233.387 828.308 229.507C835.388 225.64 843.335 223.693 852.148 223.693C861.362 223.693 869.602 225.666 876.882 229.613C884.162 233.546 889.895 239.32 894.108 246.933C898.308 254.547 900.415 263.893 900.415 274.973V324.24C900.415 327.187 900.348 333.693 900.348 333.693C900.348 333.693 893.135 334.467 890.202 334.467V334.467ZM807.882 334.467C804.935 334.467 797.521 333.693 797.521 333.693C797.521 333.693 797.668 327.187 797.668 324.24V234.92C797.668 231.84 798.628 229.373 800.575 227.507C802.508 225.64 804.935 224.707 807.882 224.707C810.948 224.707 813.415 225.64 815.295 227.507C817.162 229.373 818.095 231.84 818.095 234.92V324.24C818.095 327.187 818.095 333.693 818.095 333.693C818.082 333.693 810.948 334.467 807.882 334.467" fill="white"/>
<path d="M228.455 298.306C225.375 304.066 221.149 308.586 215.802 311.866C210.442 315.146 204.349 316.786 197.522 316.786C190.829 316.786 184.762 315.146 179.335 311.866C173.922 308.586 169.629 304.066 166.482 298.306C163.335 292.56 161.762 286.133 161.762 279.026C161.762 271.799 163.335 265.373 166.482 259.746C169.629 254.119 173.922 249.666 179.335 246.386C184.762 243.106 190.829 241.466 197.522 241.466C204.349 241.466 210.442 243.106 215.802 246.386C221.149 249.666 225.375 254.119 228.455 259.746C231.522 265.373 233.069 271.799 233.069 279.026C233.069 280.853 232.962 282.613 232.762 284.346C232.509 284.239 232.269 284.106 232.042 283.959C231.162 283.413 230.402 282.666 229.495 282.173C228.589 281.68 227.429 281.453 226.535 282C226.082 282.266 225.762 282.706 225.442 283.146C223.415 285.973 221.389 288.786 219.362 291.613C218.655 285.399 217.949 279.2 217.229 272.986C217.082 271.586 216.442 269.759 215.029 269.879C214.015 269.973 213.455 271.093 213.082 272.053C211.749 275.6 210.402 279.133 209.069 282.679C207.469 274.693 205.855 266.706 204.255 258.72C204.015 257.533 203.495 256.093 202.282 256.026C201.015 255.959 200.362 257.493 200.082 258.733C197.855 268.453 195.629 278.173 193.389 287.879C192.215 282.226 191.029 276.56 189.842 270.906C189.575 269.626 188.962 268.039 187.655 268.026C186.642 268.026 185.935 269.04 185.442 269.92C183.935 272.573 182.442 275.239 180.949 277.893C180.309 279.013 179.642 280.173 178.575 280.866C177.495 281.573 175.895 281.639 175.055 280.679C175.109 281.546 175.149 282.426 175.202 283.306C176.882 284.44 179.095 285.6 180.815 284.52C181.549 284.066 182.015 283.306 182.442 282.559C183.922 280.053 185.389 277.546 186.855 275.04C188.295 281.893 189.722 288.759 191.162 295.626C191.322 296.359 191.469 297.093 191.909 297.706C192.335 298.32 193.095 298.746 193.815 298.546C194.762 298.279 195.122 297.173 195.349 296.226C197.589 286.453 199.829 276.693 202.069 266.933C203.549 274.253 205.015 281.573 206.482 288.893C206.695 289.933 207.095 291.173 208.135 291.386C209.389 291.64 210.255 290.2 210.709 289C211.882 285.92 213.042 282.826 214.202 279.733C214.829 285.08 215.442 290.426 216.069 295.773C216.202 296.946 216.589 298.386 217.735 298.573C218.735 298.733 219.535 297.813 220.122 297.013C222.922 293.119 225.722 289.239 228.522 285.346C229.642 285.906 230.642 286.666 231.695 287.333C231.829 287.413 232.029 287.466 232.269 287.533C231.522 291.346 230.242 294.946 228.455 298.306V298.306ZM249.935 180.013C248.069 178.146 245.589 177.2 242.509 177.2C239.562 177.2 237.109 178.146 235.175 180.013C233.229 181.893 232.269 184.36 232.269 187.44V241.666C227.709 236.053 222.082 231.6 215.389 228.306C208.695 225.04 201.402 223.4 193.509 223.4C183.722 223.4 174.949 225.84 167.189 230.72C159.415 235.613 153.295 242.239 148.815 250.613C144.322 258.973 142.082 268.453 142.082 279.026C142.082 289.599 144.522 299.119 149.415 307.546C154.295 315.986 160.935 322.653 169.295 327.533C177.669 332.426 187.069 334.866 197.522 334.866C207.962 334.866 217.335 332.426 225.642 327.533C233.935 322.653 240.535 315.986 245.415 307.546C250.309 299.119 252.749 289.599 252.749 279.026V187.44C252.749 184.36 251.815 181.893 249.935 180.013" fill="white"/>
</svg>
