<svg width="82" height="93" viewBox="0 0 82 93" fill="none" xmlns="http://www.w3.org/2000/svg">
<path d="M23.6732 76.7355C22.9491 75.6091 22.5662 74.3058 22.5662 72.9666V60.1763C22.5662 58.9498 22.7798 57.7436 23.2006 56.5913L30.284 37.2013C30.5395 36.5019 30.1798 35.728 29.4803 35.4724C28.7816 35.218 28.007 35.5768 27.7514 36.2763L20.6679 55.6663C20.1384 57.1157 19.8698 58.6332 19.8698 60.1765V69.7L1.28131 76.1915C0.578272 76.4371 0.207426 77.2061 0.452979 77.909C0.64712 78.4649 1.16842 78.813 1.72586 78.813C1.87327 78.813 2.02337 78.7885 2.17041 78.7373L19.87 72.5557V72.9664C19.87 74.8239 20.4008 76.6314 21.4053 78.1933C21.6631 78.594 22.0972 78.8126 22.5405 78.8126C22.7902 78.8126 23.0427 78.7432 23.2683 78.5983C23.8946 78.1958 24.0758 77.3616 23.6732 76.7355Z" fill="#ED9511"/>
<path d="M58.0718 90.3125L43.7373 81.0507C42.9635 80.5509 42.5017 79.7025 42.5017 78.7812V41.2099V41.2097C42.5017 40.6578 42.9507 40.209 43.5026 40.209C43.9444 40.209 44.3288 40.4926 44.4589 40.9149L48.9651 55.5283C49.0052 55.6581 49.0255 55.7929 49.0255 55.9286V59.1169C49.0255 59.8616 49.629 60.4651 50.3737 60.4651C51.1185 60.4651 51.7219 59.8616 51.7219 59.1169V55.9286C51.7219 55.5233 51.6614 55.1212 51.5418 54.7338L47.0356 40.1205C46.5547 38.5607 45.1348 37.5127 43.5026 37.5127C43.1553 37.5127 42.8206 37.5643 42.5017 37.6542V21.4912C42.5017 20.4812 43.3235 19.6595 44.3336 19.6595C45.0997 19.6595 45.7911 20.143 46.0541 20.8626L59.1063 56.5916C59.5273 57.7435 59.7405 58.9497 59.7405 60.1766V60.4634C59.7405 61.2082 60.344 61.8116 61.0887 61.8116C61.8335 61.8116 62.4369 61.2082 62.4369 60.4634V60.1766C62.4369 58.6331 62.1685 57.1156 61.6391 55.6664L48.5869 19.9372C47.9369 18.1583 46.2276 16.9629 44.3336 16.9629C43.0952 16.9629 41.9717 17.463 41.1535 18.2712C40.3352 17.463 39.2117 16.9629 37.9733 16.9629C36.0792 16.9629 34.3698 18.1581 33.72 19.9374L29.7349 30.8463C29.4795 31.5458 29.8392 32.3196 30.5386 32.5753C31.2379 32.8303 32.0121 32.4708 32.2675 31.7714L36.2527 20.8624C36.5156 20.1429 37.2072 19.6593 37.9733 19.6593C38.9834 19.6593 39.8053 20.481 39.8053 21.4911V37.654C39.4864 37.5641 39.1517 37.5126 38.8044 37.5126C37.172 37.5126 35.7522 38.5606 35.2712 40.1203L30.7648 54.7339C30.6454 55.1213 30.5848 55.5235 30.5848 55.9286V59.1169C30.5848 59.8616 31.1884 60.4651 31.933 60.4651C32.6776 60.4651 33.2812 59.8616 33.2812 59.1169V55.9286C33.2812 55.7927 33.3015 55.6579 33.3414 55.5281L37.8477 40.9149C37.9778 40.4926 38.3623 40.209 38.8042 40.209C39.356 40.209 39.8051 40.6578 39.8051 41.2097V41.2099V78.7812C39.8051 79.7025 39.3431 80.5509 38.5694 81.0507L24.235 90.3125C23.6096 90.7166 23.4302 91.5512 23.8343 92.1766C24.0922 92.5758 24.5254 92.7933 24.9678 92.7933C25.2186 92.7933 25.4721 92.7234 25.6982 92.5774L40.0327 83.3157C40.4555 83.0424 40.8297 82.7156 41.1533 82.3496C41.4767 82.7156 41.8509 83.0424 42.2737 83.3157L56.6082 92.5774C56.8345 92.7236 57.088 92.7933 57.3386 92.7933C57.7809 92.7933 58.2142 92.5758 58.4723 92.1766C58.8768 91.5512 58.6974 90.7166 58.0718 90.3125Z" fill="#ED9511"/>
<path d="M81.0261 76.1904L62.4374 69.6983V66.2076C62.4374 65.4628 61.834 64.8594 61.0892 64.8594C60.3445 64.8594 59.741 65.4628 59.741 66.2076V72.9655C59.741 74.3047 59.3583 75.608 58.6342 76.7343C58.2316 77.3606 58.4129 78.1947 59.0392 78.5974C59.2648 78.7424 59.5174 78.8117 59.7671 78.8117C60.2105 78.8117 60.6448 78.5931 60.9023 78.1924C61.9066 76.6303 62.4374 74.8228 62.4374 72.9655V72.5547L80.1371 78.7362C80.2842 78.7874 80.4341 78.8118 80.5817 78.8118C81.139 78.8118 81.6604 78.4635 81.8546 77.9078C82.1 77.205 81.7291 76.4361 81.0261 76.1904Z" fill="#ED9511"/>
<path d="M71.9244 24.2898C71.2097 26.352 70.0837 28.2147 68.5773 29.8262L59.4309 39.6099C58.9224 40.1538 58.9511 41.007 59.4949 41.5155C59.7548 41.7587 60.0854 41.8788 60.4153 41.8788C60.7757 41.8788 61.135 41.7352 61.4003 41.4513L70.5469 31.6675C72.3125 29.7786 73.6332 27.5934 74.4722 25.1728C74.7159 24.4692 74.3433 23.7011 73.6397 23.4573C72.9356 23.2139 72.1684 23.5864 71.9244 24.2898Z" fill="#ED9511"/>
<path d="M20.9492 41.3568C21.2143 41.6365 21.5706 41.7774 21.9278 41.7774C22.2609 41.7774 22.5943 41.6547 22.8552 41.4075C23.3955 40.8952 23.4182 40.0418 22.9059 39.5015L13.7309 29.825C7.84752 23.6197 8.04023 14.078 14.1695 8.10238C20.4523 1.97686 30.6855 1.96662 36.9811 8.07919L39.083 10.1202C40.2182 11.2219 41.9946 11.2203 43.1273 10.1161L45.1678 8.12682C51.4635 1.98909 61.7075 1.98909 68.0025 8.12629L68.0613 8.18363C71.0272 11.0753 72.6991 14.9191 72.7689 19.0072C72.7815 19.744 73.3826 20.3324 74.1164 20.3324C74.1243 20.3324 74.1322 20.3324 74.1399 20.3322C74.8845 20.3194 75.4775 19.7057 75.4649 18.9612C75.3828 14.1572 73.422 9.64418 69.9439 6.25354L69.8852 6.1962C62.5515 -0.953411 50.6186 -0.953771 43.2853 6.1962L41.245 8.18525C41.1656 8.26254 41.0408 8.2629 40.9612 8.18561L38.8592 6.14461C31.5265 -0.975342 19.606 -0.963477 12.2874 6.17193C8.82236 9.54999 6.86118 14.0435 6.76483 18.8244C6.66847 23.606 8.44756 28.1715 11.7744 31.6805L20.9492 41.3568Z" fill="#ED9511"/>
</svg>
