<svg width="93" height="93" viewBox="0 0 93 93" fill="none" xmlns="http://www.w3.org/2000/svg">
<path d="M73.2451 27.1525C74.7307 27.1525 75.9351 25.946 75.9351 24.4578C75.9351 20.0001 79.5553 16.3735 84.0052 16.3735C85.4908 16.3735 86.6952 15.167 86.6952 13.6788C86.6952 12.1906 85.4908 10.984 84.0052 10.984C79.6307 10.984 75.9351 7.1997 75.9351 2.72014C75.9351 1.23192 74.7307 0.0253906 73.2451 0.0253906C71.7595 0.0253906 70.555 1.23192 70.555 2.72014C70.555 7.1997 66.8595 10.984 62.485 10.984C60.9993 10.984 59.7949 12.1906 59.7949 13.6788C59.7949 15.167 60.9993 16.3735 62.485 16.3735C66.9348 16.3735 70.555 20.0001 70.555 24.4578C70.555 25.946 71.7595 27.1525 73.2451 27.1525ZM70.5097 13.6518C71.5469 12.8596 72.4581 11.9329 73.2451 10.871C74.0318 11.9328 74.943 12.8596 75.9805 13.6518C74.9437 14.4265 74.0218 15.3472 73.2451 16.383C72.4684 15.347 71.5464 14.4265 70.5097 13.6518Z" fill="#4F82B6"/>
<path d="M54.4149 19.0697C54.4149 17.5815 53.2105 16.375 51.7249 16.375C50.2393 16.375 49.0349 17.5815 49.0349 19.0697C49.0349 26.4992 43.0012 32.5435 35.5847 32.5435C34.0991 32.5435 32.8947 33.75 32.8947 35.2382C32.8947 36.7264 34.0991 37.933 35.5847 37.933C43.0012 37.933 49.0349 43.9773 49.0349 51.4067C49.0349 52.8949 50.2393 54.1015 51.7249 54.1015C53.2105 54.1015 54.4149 52.8949 54.4149 51.4067C54.4149 43.9773 60.4487 37.933 67.8651 37.933C69.3507 37.933 70.5551 36.7264 70.5551 35.2382C70.5551 33.75 69.3507 32.5435 67.8651 32.5435C60.4487 32.5435 54.4149 26.4992 54.4149 19.0697ZM51.7249 41.7006C50.134 39.0558 47.914 36.8319 45.274 35.2382C47.9142 33.6446 50.134 31.4207 51.7249 28.7759C53.3158 31.4207 55.5358 33.6446 58.1758 35.2382C55.5358 36.8319 53.3158 39.0556 51.7249 41.7006Z" fill="#4F82B6"/>
<path d="M46.3447 92.006C69.414 92.006 89.1753 74.6659 92.2297 52.2499C92.3994 51.005 91.6878 49.808 90.5142 49.3642C89.341 48.9207 88.0171 49.3481 87.3233 50.3949C81.4024 59.3288 70.8541 64.8789 59.7948 64.8789C41.9955 64.8789 27.5146 50.3726 27.5146 32.542C27.5146 21.4634 33.0548 10.8966 41.9733 4.9653C43.0181 4.27041 43.4451 2.94424 43.0021 1.7688C42.5593 0.593349 41.3646 -0.1195 40.1214 0.0502686C17.7155 3.11419 0.434998 22.9371 0.434998 46.0157C0.434998 71.3389 21.0675 92.006 46.3447 92.006ZM30.6038 8.22701C25.2377 14.9923 22.1345 23.6296 22.1345 32.542C22.1345 53.3444 39.0289 70.2684 59.7948 70.2684C68.6916 70.2684 77.3137 67.1598 84.0673 61.7843C77.8027 76.4701 63.0688 86.6165 46.3447 86.6165C23.9966 86.6165 5.81504 68.4031 5.81504 46.0157C5.81504 29.2623 15.9437 14.5025 30.6038 8.22701Z" fill="#F3CC68"/>
</svg>
