<svg width="30" height="30" viewBox="0 0 30 30" fill="none" xmlns="http://www.w3.org/2000/svg">
<rect x="0.25" y="0.25" width="29.5" height="29.5" rx="4.75" stroke="white" stroke-width="0.5"/>
<path d="M20.8654 8H10.1346C8.92308 8 8 8.92308 8 10.1346V20.8654C8 22.0769 8.92308 23 10.1346 23H20.8654C22.0769 23 23 22.0769 23 20.8654V10.1346C23 8.92308 22.0769 8 20.8654 8ZM15.5 20C17.9808 20 20 18.0385 20 15.6731C20 15.2692 19.9423 14.8077 19.8269 14.4615H21.0962V20.5769C21.0962 20.8654 20.8654 21.1538 20.5192 21.1538H10.4808C10.1923 21.1538 9.90385 20.9231 9.90385 20.5769V14.4038H11.2308C11.1154 14.8077 11.0577 15.2115 11.0577 15.6154C11 18.0385 13.0192 20 15.5 20ZM15.5 18.2692C13.8846 18.2692 12.6154 17 12.6154 15.4423C12.6154 13.8846 13.8846 12.6154 15.5 12.6154C17.1154 12.6154 18.3846 13.8846 18.3846 15.4423C18.3846 17.0577 17.1154 18.2692 15.5 18.2692ZM21.0385 12.0962C21.0385 12.4423 20.75 12.7308 20.4038 12.7308H18.7885C18.4423 12.7308 18.1538 12.4423 18.1538 12.0962V10.5385C18.1538 10.1923 18.4423 9.90385 18.7885 9.90385H20.4038C20.75 9.90385 21.0385 10.1923 21.0385 10.5385V12.0962Z" fill="white"/>
</svg>
