
<svg height='300px' width='300px'  fill="#43a3fb" xmlns="http://www.w3.org/2000/svg" xmlns:xlink="http://www.w3.org/1999/xlink" version="1.1" x="0px" y="0px" viewBox="0 0 100 100" style="enable-background:new 0 0 100 100;" xml:space="preserve"><path d="M90.9,19.1H57.4c-1.4,0-2.6,1.1-2.6,2.6v9.8c0,1.6,1.5,2.6,2.8,2.5c3-0.2,4.8,1.1,5.4,3c1.3,3.7-2.2,6.8-5.2,6  c-1.6-0.4-3.1,0.7-3.1,2.3v9.5h-9.5c-1.6,0-2.8,1.5-2.3,3.1c0.8,3-2.3,6.4-6,5.2c-1.7-0.6-3-2.2-3-4.4c0-1,0.2-1.7-0.4-2.5  c-0.5-0.8-1.2-1.3-2.1-1.3h-9.8c-1.4,0-2.6,1.1-2.6,2.6v33.6c0,1.4,1.1,2.6,2.6,2.6c1.9,0,70.3,0,69.3,0c1.4,0,2.6-1.1,2.6-2.6V21.8  C93.5,20.2,92.4,19.1,90.9,19.1z M66.3,38.5c0-3.9-3-7.7-8.5-7.6V22h32.7v32.7H82c-0.7-3.6-3.9-6.3-7.8-6.3s-7.1,2.7-7.8,6.3h-8.6  V46C61.8,46.7,66.3,43.3,66.3,38.5z M55.5,79.1c-2.3-0.4-4-2.4-4-4.9s1.7-4.5,4-4.9c1.3-0.2,2.3-1.4,2.3-2.7v-8.8h8.8  c1.4,0,2.5-1,2.7-2.3c0.4-2.3,2.4-4,4.9-4s4.5,1.7,4.9,4c0.2,1.3,1.3,2.3,2.7,2.3h8.7v32.7H57.8v-8.7C57.8,80.5,56.8,79.3,55.5,79.1  z M38.5,66.3c4.8,0,8.2-4.5,7.5-8.5h8.8v8.6c-3.6,0.7-6.3,3.9-6.3,7.8s2.7,7.1,6.3,7.8v8.5H22.1V57.8H31  C30.8,63.2,34.5,66.3,38.5,66.3z"></path><path d="M18,45.2c0.7,3.6,3.9,6.3,7.8,6.3s7.1-2.7,7.8-6.3h9.1c1.4,0,2.6-1.1,2.6-2.6v-9.1c3.6-0.7,6.3-3.9,6.3-7.8  s-2.7-7.1-6.3-7.8V9.1c0-1.4-1.1-2.6-2.6-2.6H9.1c-1.4,0-2.6,1.1-2.6,2.6v33.6c0,1.4,1.1,2.6,2.6,2.6L18,45.2L18,45.2z M48.5,25.8  c0,2.5-1.7,4.5-4,4.9c-1.3,0.2-2.3,1.4-2.3,2.7v8.8h-8.8c-1.4,0-2.5,1-2.7,2.3c-0.4,2.3-2.4,4-4.9,4s-4.5-1.7-4.9-4  c-0.2-1.3-1.3-2.3-2.7-2.3H9.5V9.5h32.7v8.7c0,1.4,1,2.5,2.3,2.7C46.8,21.2,48.5,23.3,48.5,25.8z"></path></svg>
