<svg width="30" height="30" viewBox="0 0 30 30" fill="none" xmlns="http://www.w3.org/2000/svg">
<rect x="0.25" y="0.25" width="29.5" height="29.5" rx="4.75" stroke="white" stroke-width="0.5"/>
<path d="M22.7888 16.2042V22.01H19.3903V16.5583C19.3903 15.213 18.8947 14.2926 17.6911 14.2926C16.7707 14.2926 16.2042 14.9298 15.9918 15.4962C15.921 15.7086 15.8502 15.9918 15.8502 16.3458V22.01H12.4517C12.4517 22.01 12.5225 12.8058 12.4517 11.8853H15.8502V13.3014C16.275 12.5934 17.1247 11.6021 18.8947 11.6021C21.0896 11.6021 22.7888 13.089 22.7888 16.2042ZM8.91165 7C7.77882 7 7 7.77882 7 8.77005C7 9.76127 7.70802 10.5401 8.84085 10.5401C10.0445 10.5401 10.7525 9.76127 10.7525 8.77005C10.8233 7.70802 10.1153 7 8.91165 7ZM7.21241 22.01H10.6109V11.8853H7.21241V22.01Z" fill="white"/>
</svg>
