<svg width="1440" height="855" viewBox="0 0 1440 855" fill="none" xmlns="http://www.w3.org/2000/svg">
<path opacity="0.1" d="M0 49H1440V715.882C1440 715.882 1192.6 677.834 1032.5 679.685C767.08 682.754 631.867 881.217 367.5 852.08C327.372 847.658 281.92 836.988 237 823.792C116.591 788.421 0 705.452 0 705.452V49Z" fill="url(#paint0_radial)"/>
<path d="M0 0H1440V697.815C1440 697.815 1192.6 639.757 1032.5 641.64C767.08 644.762 631.867 846.672 367.5 817.03C219.81 800.47 0 697.815 0 697.815V0Z" fill="url(#paint1_radial)"/>
<g opacity="0.4">
<g opacity="0.2">
<circle r="3" transform="matrix(0 1 1 0 1283 103)" fill="white"/>
<circle r="3" transform="matrix(0 1 1 0 1283 191)" fill="white"/>
<circle r="3" transform="matrix(0 1 1 0 1305 103)" fill="white"/>
<circle r="3" transform="matrix(0 1 1 0 1305 191)" fill="white"/>
<circle r="3" transform="matrix(0 1 1 0 1327 103)" fill="white"/>
<circle r="3" transform="matrix(0 1 1 0 1327 191)" fill="white"/>
<circle r="3" transform="matrix(0 1 1 0 1349 103)" fill="white"/>
<circle r="3" transform="matrix(0 1 1 0 1349 191)" fill="white"/>
<circle r="3" transform="matrix(0 1 1 0 1283 125)" fill="white"/>
<circle r="3" transform="matrix(0 1 1 0 1283 213)" fill="white"/>
<circle r="3" transform="matrix(0 1 1 0 1305 125)" fill="white"/>
<circle r="3" transform="matrix(0 1 1 0 1305 213)" fill="white"/>
<circle r="3" transform="matrix(0 1 1 0 1327 125)" fill="white"/>
<circle r="3" transform="matrix(0 1 1 0 1327 213)" fill="white"/>
<circle r="3" transform="matrix(0 1 1 0 1349 125)" fill="white"/>
<circle r="3" transform="matrix(0 1 1 0 1349 213)" fill="white"/>
<circle r="3" transform="matrix(0 1 1 0 1283 147)" fill="white"/>
<circle r="3" transform="matrix(0 1 1 0 1283 235)" fill="white"/>
<circle r="3" transform="matrix(0 1 1 0 1305 147)" fill="white"/>
<circle r="3" transform="matrix(0 1 1 0 1305 235)" fill="white"/>
<circle r="3" transform="matrix(0 1 1 0 1327 147)" fill="white"/>
<circle r="3" transform="matrix(0 1 1 0 1327 235)" fill="white"/>
<circle r="3" transform="matrix(0 1 1 0 1349 147)" fill="white"/>
<circle r="3" transform="matrix(0 1 1 0 1349 235)" fill="white"/>
<circle r="3" transform="matrix(0 1 1 0 1283 169)" fill="white"/>
<circle r="3" transform="matrix(0 1 1 0 1283 257)" fill="white"/>
<circle r="3" transform="matrix(0 1 1 0 1305 169)" fill="white"/>
<circle r="3" transform="matrix(0 1 1 0 1305 257)" fill="white"/>
<circle r="3" transform="matrix(0 1 1 0 1327 169)" fill="white"/>
<circle r="3" transform="matrix(0 1 1 0 1327 257)" fill="white"/>
<circle r="3" transform="matrix(0 1 1 0 1349 169)" fill="white"/>
<circle r="3" transform="matrix(0 1 1 0 1349 257)" fill="white"/>
</g>
<g opacity="0.6">
<circle opacity="0.5" r="3" transform="matrix(0 1 1 0 1371 103)" fill="white"/>
<circle opacity="0.5" r="3" transform="matrix(0 1 1 0 1371 191)" fill="white"/>
<circle opacity="0.7" r="3" transform="matrix(0 1 1 0 1393 103)" fill="white"/>
<circle opacity="0.7" r="3" transform="matrix(0 1 1 0 1393 191)" fill="white"/>
<circle r="3" transform="matrix(0 1 1 0 1415 103)" fill="white"/>
<circle r="3" transform="matrix(0 1 1 0 1415 191)" fill="white"/>
<circle r="3" transform="matrix(0 1 1 0 1437 103)" fill="white"/>
<circle r="3" transform="matrix(0 1 1 0 1437 191)" fill="white"/>
<circle opacity="0.5" r="3" transform="matrix(0 1 1 0 1371 125)" fill="white"/>
<circle opacity="0.5" r="3" transform="matrix(0 1 1 0 1371 213)" fill="white"/>
<circle opacity="0.7" r="3" transform="matrix(0 1 1 0 1393 125)" fill="white"/>
<circle opacity="0.7" r="3" transform="matrix(0 1 1 0 1393 213)" fill="white"/>
<circle r="3" transform="matrix(0 1 1 0 1415 125)" fill="white"/>
<circle r="3" transform="matrix(0 1 1 0 1415 213)" fill="white"/>
<circle r="3" transform="matrix(0 1 1 0 1437 125)" fill="white"/>
<circle r="3" transform="matrix(0 1 1 0 1437 213)" fill="white"/>
<circle opacity="0.5" r="3" transform="matrix(0 1 1 0 1371 147)" fill="white"/>
<circle opacity="0.5" r="3" transform="matrix(0 1 1 0 1371 235)" fill="white"/>
<circle opacity="0.7" r="3" transform="matrix(0 1 1 0 1393 147)" fill="white"/>
<circle opacity="0.7" r="3" transform="matrix(0 1 1 0 1393 235)" fill="white"/>
<circle r="3" transform="matrix(0 1 1 0 1415 147)" fill="white"/>
<circle r="3" transform="matrix(0 1 1 0 1415 235)" fill="white"/>
<circle r="3" transform="matrix(0 1 1 0 1437 147)" fill="white"/>
<circle r="3" transform="matrix(0 1 1 0 1437 235)" fill="white"/>
<circle opacity="0.5" r="3" transform="matrix(0 1 1 0 1371 169)" fill="white"/>
<circle opacity="0.5" r="3" transform="matrix(0 1 1 0 1371 257)" fill="white"/>
<circle opacity="0.7" r="3" transform="matrix(0 1 1 0 1393 169)" fill="white"/>
<circle opacity="0.7" r="3" transform="matrix(0 1 1 0 1393 257)" fill="white"/>
<circle r="3" transform="matrix(0 1 1 0 1415 169)" fill="white"/>
<circle r="3" transform="matrix(0 1 1 0 1415 257)" fill="white"/>
<circle r="3" transform="matrix(0 1 1 0 1437 169)" fill="white"/>
<circle r="3" transform="matrix(0 1 1 0 1437 257)" fill="white"/>
</g>
</g>
<g opacity="0.4">
<g opacity="0.2">
<circle r="3" transform="matrix(0 1 1 0 1283 263)" fill="white"/>
<circle r="3" transform="matrix(0 1 1 0 1283 351)" fill="white"/>
<circle r="3" transform="matrix(0 1 1 0 1305 263)" fill="white"/>
<circle r="3" transform="matrix(0 1 1 0 1305 351)" fill="white"/>
<circle r="3" transform="matrix(0 1 1 0 1327 263)" fill="white"/>
<circle r="3" transform="matrix(0 1 1 0 1327 351)" fill="white"/>
<circle r="3" transform="matrix(0 1 1 0 1349 263)" fill="white"/>
<circle r="3" transform="matrix(0 1 1 0 1349 351)" fill="white"/>
<circle r="3" transform="matrix(0 1 1 0 1283 285)" fill="white"/>
<circle r="3" transform="matrix(0 1 1 0 1283 373)" fill="white"/>
<circle r="3" transform="matrix(0 1 1 0 1305 285)" fill="white"/>
<circle r="3" transform="matrix(0 1 1 0 1305 373)" fill="white"/>
<circle r="3" transform="matrix(0 1 1 0 1327 285)" fill="white"/>
<circle r="3" transform="matrix(0 1 1 0 1327 373)" fill="white"/>
<circle r="3" transform="matrix(0 1 1 0 1349 285)" fill="white"/>
<circle r="3" transform="matrix(0 1 1 0 1349 373)" fill="white"/>
<circle r="3" transform="matrix(0 1 1 0 1283 307)" fill="white"/>
<circle r="3" transform="matrix(0 1 1 0 1283 395)" fill="white"/>
<circle r="3" transform="matrix(0 1 1 0 1305 307)" fill="white"/>
<circle r="3" transform="matrix(0 1 1 0 1305 395)" fill="white"/>
<circle r="3" transform="matrix(0 1 1 0 1327 307)" fill="white"/>
<circle r="3" transform="matrix(0 1 1 0 1327 395)" fill="white"/>
<circle r="3" transform="matrix(0 1 1 0 1349 307)" fill="white"/>
<circle r="3" transform="matrix(0 1 1 0 1349 395)" fill="white"/>
<circle r="3" transform="matrix(0 1 1 0 1283 329)" fill="white"/>
<circle r="3" transform="matrix(0 1 1 0 1283 417)" fill="white"/>
<circle r="3" transform="matrix(0 1 1 0 1305 329)" fill="white"/>
<circle r="3" transform="matrix(0 1 1 0 1305 417)" fill="white"/>
<circle r="3" transform="matrix(0 1 1 0 1327 329)" fill="white"/>
<circle r="3" transform="matrix(0 1 1 0 1327 417)" fill="white"/>
<circle r="3" transform="matrix(0 1 1 0 1349 329)" fill="white"/>
<circle r="3" transform="matrix(0 1 1 0 1349 417)" fill="white"/>
</g>
<g opacity="0.6">
<circle opacity="0.5" r="3" transform="matrix(0 1 1 0 1371 263)" fill="white"/>
<circle opacity="0.5" r="3" transform="matrix(0 1 1 0 1371 351)" fill="white"/>
<circle opacity="0.7" r="3" transform="matrix(0 1 1 0 1393 263)" fill="white"/>
<circle opacity="0.7" r="3" transform="matrix(0 1 1 0 1393 351)" fill="white"/>
<circle r="3" transform="matrix(0 1 1 0 1415 263)" fill="white"/>
<circle r="3" transform="matrix(0 1 1 0 1415 351)" fill="white"/>
<circle r="3" transform="matrix(0 1 1 0 1437 263)" fill="white"/>
<circle r="3" transform="matrix(0 1 1 0 1437 351)" fill="white"/>
<circle opacity="0.5" r="3" transform="matrix(0 1 1 0 1371 285)" fill="white"/>
<circle opacity="0.5" r="3" transform="matrix(0 1 1 0 1371 373)" fill="white"/>
<circle opacity="0.7" r="3" transform="matrix(0 1 1 0 1393 285)" fill="white"/>
<circle opacity="0.7" r="3" transform="matrix(0 1 1 0 1393 373)" fill="white"/>
<circle r="3" transform="matrix(0 1 1 0 1415 285)" fill="white"/>
<circle r="3" transform="matrix(0 1 1 0 1415 373)" fill="white"/>
<circle r="3" transform="matrix(0 1 1 0 1437 285)" fill="white"/>
<circle r="3" transform="matrix(0 1 1 0 1437 373)" fill="white"/>
<circle opacity="0.5" r="3" transform="matrix(0 1 1 0 1371 307)" fill="white"/>
<circle opacity="0.5" r="3" transform="matrix(0 1 1 0 1371 395)" fill="white"/>
<circle opacity="0.7" r="3" transform="matrix(0 1 1 0 1393 307)" fill="white"/>
<circle opacity="0.7" r="3" transform="matrix(0 1 1 0 1393 395)" fill="white"/>
<circle r="3" transform="matrix(0 1 1 0 1415 307)" fill="white"/>
<circle r="3" transform="matrix(0 1 1 0 1415 395)" fill="white"/>
<circle r="3" transform="matrix(0 1 1 0 1437 307)" fill="white"/>
<circle r="3" transform="matrix(0 1 1 0 1437 395)" fill="white"/>
<circle opacity="0.5" r="3" transform="matrix(0 1 1 0 1371 329)" fill="white"/>
<circle opacity="0.5" r="3" transform="matrix(0 1 1 0 1371 417)" fill="white"/>
<circle opacity="0.7" r="3" transform="matrix(0 1 1 0 1393 329)" fill="white"/>
<circle opacity="0.7" r="3" transform="matrix(0 1 1 0 1393 417)" fill="white"/>
<circle r="3" transform="matrix(0 1 1 0 1415 329)" fill="white"/>
<circle r="3" transform="matrix(0 1 1 0 1415 417)" fill="white"/>
<circle r="3" transform="matrix(0 1 1 0 1437 329)" fill="white"/>
<circle r="3" transform="matrix(0 1 1 0 1437 417)" fill="white"/>
</g>
</g>
<g opacity="0.4">
<g opacity="0.2">
<circle r="3" transform="matrix(0 1 1 0 1283 423)" fill="white"/>
<circle r="3" transform="matrix(0 1 1 0 1283 511)" fill="white"/>
<circle r="3" transform="matrix(0 1 1 0 1305 423)" fill="white"/>
<circle r="3" transform="matrix(0 1 1 0 1305 511)" fill="white"/>
<circle r="3" transform="matrix(0 1 1 0 1327 423)" fill="white"/>
<circle r="3" transform="matrix(0 1 1 0 1327 511)" fill="white"/>
<circle r="3" transform="matrix(0 1 1 0 1349 423)" fill="white"/>
<circle r="3" transform="matrix(0 1 1 0 1349 511)" fill="white"/>
<circle r="3" transform="matrix(0 1 1 0 1283 445)" fill="white"/>
<circle r="3" transform="matrix(0 1 1 0 1283 533)" fill="white"/>
<circle r="3" transform="matrix(0 1 1 0 1305 445)" fill="white"/>
<circle r="3" transform="matrix(0 1 1 0 1305 533)" fill="white"/>
<circle r="3" transform="matrix(0 1 1 0 1327 445)" fill="white"/>
<circle r="3" transform="matrix(0 1 1 0 1327 533)" fill="white"/>
<circle r="3" transform="matrix(0 1 1 0 1349 445)" fill="white"/>
<circle r="3" transform="matrix(0 1 1 0 1349 533)" fill="white"/>
<circle r="3" transform="matrix(0 1 1 0 1283 467)" fill="white"/>
<circle r="3" transform="matrix(0 1 1 0 1283 555)" fill="white"/>
<circle r="3" transform="matrix(0 1 1 0 1305 467)" fill="white"/>
<circle r="3" transform="matrix(0 1 1 0 1305 555)" fill="white"/>
<circle r="3" transform="matrix(0 1 1 0 1327 467)" fill="white"/>
<circle r="3" transform="matrix(0 1 1 0 1327 555)" fill="white"/>
<circle r="3" transform="matrix(0 1 1 0 1349 467)" fill="white"/>
<circle r="3" transform="matrix(0 1 1 0 1349 555)" fill="white"/>
<circle r="3" transform="matrix(0 1 1 0 1283 489)" fill="white"/>
<circle r="3" transform="matrix(0 1 1 0 1283 577)" fill="white"/>
<circle r="3" transform="matrix(0 1 1 0 1305 489)" fill="white"/>
<circle r="3" transform="matrix(0 1 1 0 1305 577)" fill="white"/>
<circle r="3" transform="matrix(0 1 1 0 1327 489)" fill="white"/>
<circle r="3" transform="matrix(0 1 1 0 1327 577)" fill="white"/>
<circle r="3" transform="matrix(0 1 1 0 1349 489)" fill="white"/>
<circle r="3" transform="matrix(0 1 1 0 1349 577)" fill="white"/>
</g>
<g opacity="0.6">
<circle opacity="0.5" r="3" transform="matrix(0 1 1 0 1371 423)" fill="white"/>
<circle opacity="0.5" r="3" transform="matrix(0 1 1 0 1371 511)" fill="white"/>
<circle opacity="0.7" r="3" transform="matrix(0 1 1 0 1393 423)" fill="white"/>
<circle opacity="0.7" r="3" transform="matrix(0 1 1 0 1393 511)" fill="white"/>
<circle r="3" transform="matrix(0 1 1 0 1415 423)" fill="white"/>
<circle r="3" transform="matrix(0 1 1 0 1415 511)" fill="white"/>
<circle r="3" transform="matrix(0 1 1 0 1437 423)" fill="white"/>
<circle r="3" transform="matrix(0 1 1 0 1437 511)" fill="white"/>
<circle opacity="0.5" r="3" transform="matrix(0 1 1 0 1371 445)" fill="white"/>
<circle opacity="0.5" r="3" transform="matrix(0 1 1 0 1371 533)" fill="white"/>
<circle opacity="0.7" r="3" transform="matrix(0 1 1 0 1393 445)" fill="white"/>
<circle opacity="0.7" r="3" transform="matrix(0 1 1 0 1393 533)" fill="white"/>
<circle r="3" transform="matrix(0 1 1 0 1415 445)" fill="white"/>
<circle r="3" transform="matrix(0 1 1 0 1415 533)" fill="white"/>
<circle r="3" transform="matrix(0 1 1 0 1437 445)" fill="white"/>
<circle r="3" transform="matrix(0 1 1 0 1437 533)" fill="white"/>
<circle opacity="0.5" r="3" transform="matrix(0 1 1 0 1371 467)" fill="white"/>
<circle opacity="0.5" r="3" transform="matrix(0 1 1 0 1371 555)" fill="white"/>
<circle opacity="0.7" r="3" transform="matrix(0 1 1 0 1393 467)" fill="white"/>
<circle opacity="0.7" r="3" transform="matrix(0 1 1 0 1393 555)" fill="white"/>
<circle r="3" transform="matrix(0 1 1 0 1415 467)" fill="white"/>
<circle r="3" transform="matrix(0 1 1 0 1415 555)" fill="white"/>
<circle r="3" transform="matrix(0 1 1 0 1437 467)" fill="white"/>
<circle r="3" transform="matrix(0 1 1 0 1437 555)" fill="white"/>
<circle opacity="0.5" r="3" transform="matrix(0 1 1 0 1371 489)" fill="white"/>
<circle opacity="0.5" r="3" transform="matrix(0 1 1 0 1371 577)" fill="white"/>
<circle opacity="0.7" r="3" transform="matrix(0 1 1 0 1393 489)" fill="white"/>
<circle opacity="0.7" r="3" transform="matrix(0 1 1 0 1393 577)" fill="white"/>
<circle r="3" transform="matrix(0 1 1 0 1415 489)" fill="white"/>
<circle r="3" transform="matrix(0 1 1 0 1415 577)" fill="white"/>
<circle r="3" transform="matrix(0 1 1 0 1437 489)" fill="white"/>
<circle r="3" transform="matrix(0 1 1 0 1437 577)" fill="white"/>
</g>
</g>
<g opacity="0.4">
<g opacity="0.2">
<circle r="3" transform="matrix(0 1 1 0 1283 583)" fill="white"/>
<circle r="3" transform="matrix(0 1 1 0 1283 671)" fill="white"/>
<circle r="3" transform="matrix(0 1 1 0 1305 583)" fill="white"/>
<circle r="3" transform="matrix(0 1 1 0 1305 671)" fill="white"/>
<circle r="3" transform="matrix(0 1 1 0 1327 583)" fill="white"/>
<circle r="3" transform="matrix(0 1 1 0 1327 671)" fill="white"/>
<circle r="3" transform="matrix(0 1 1 0 1349 583)" fill="white"/>
<circle r="3" transform="matrix(0 1 1 0 1349 671)" fill="white"/>
<circle r="3" transform="matrix(0 1 1 0 1283 605)" fill="white"/>
<circle r="3" transform="matrix(0 1 1 0 1283 693)" fill="white"/>
<circle r="3" transform="matrix(0 1 1 0 1305 605)" fill="white"/>
<circle r="3" transform="matrix(0 1 1 0 1305 693)" fill="white"/>
<circle r="3" transform="matrix(0 1 1 0 1327 605)" fill="white"/>
<circle r="3" transform="matrix(0 1 1 0 1327 693)" fill="white"/>
<circle r="3" transform="matrix(0 1 1 0 1349 605)" fill="white"/>
<circle r="3" transform="matrix(0 1 1 0 1349 693)" fill="white"/>
<circle r="3" transform="matrix(0 1 1 0 1283 627)" fill="white"/>
<circle r="3" transform="matrix(0 1 1 0 1283 715)" fill="white"/>
<circle r="3" transform="matrix(0 1 1 0 1305 627)" fill="white"/>
<circle r="3" transform="matrix(0 1 1 0 1305 715)" fill="white"/>
<circle r="3" transform="matrix(0 1 1 0 1327 627)" fill="white"/>
<circle r="3" transform="matrix(0 1 1 0 1327 715)" fill="white"/>
<circle r="3" transform="matrix(0 1 1 0 1349 627)" fill="white"/>
<circle r="3" transform="matrix(0 1 1 0 1349 715)" fill="white"/>
<circle r="3" transform="matrix(0 1 1 0 1283 649)" fill="white"/>
<circle r="3" transform="matrix(0 1 1 0 1283 737)" fill="white"/>
<circle r="3" transform="matrix(0 1 1 0 1305 649)" fill="white"/>
<circle r="3" transform="matrix(0 1 1 0 1305 737)" fill="white"/>
<circle r="3" transform="matrix(0 1 1 0 1327 649)" fill="white"/>
<circle r="3" transform="matrix(0 1 1 0 1327 737)" fill="white"/>
<circle r="3" transform="matrix(0 1 1 0 1349 649)" fill="white"/>
<circle r="3" transform="matrix(0 1 1 0 1349 737)" fill="white"/>
</g>
<g opacity="0.6">
<circle opacity="0.5" r="3" transform="matrix(0 1 1 0 1371 583)" fill="white"/>
<circle opacity="0.5" r="3" transform="matrix(0 1 1 0 1371 671)" fill="white"/>
<circle opacity="0.7" r="3" transform="matrix(0 1 1 0 1393 583)" fill="white"/>
<circle opacity="0.7" r="3" transform="matrix(0 1 1 0 1393 671)" fill="white"/>
<circle r="3" transform="matrix(0 1 1 0 1415 583)" fill="white"/>
<circle r="3" transform="matrix(0 1 1 0 1415 671)" fill="white"/>
<circle r="3" transform="matrix(0 1 1 0 1437 583)" fill="white"/>
<circle r="3" transform="matrix(0 1 1 0 1437 671)" fill="white"/>
<circle opacity="0.5" r="3" transform="matrix(0 1 1 0 1371 605)" fill="white"/>
<circle opacity="0.5" r="3" transform="matrix(0 1 1 0 1371 693)" fill="white"/>
<circle opacity="0.7" r="3" transform="matrix(0 1 1 0 1393 605)" fill="white"/>
<circle opacity="0.7" r="3" transform="matrix(0 1 1 0 1393 693)" fill="white"/>
<circle r="3" transform="matrix(0 1 1 0 1415 605)" fill="white"/>
<circle r="3" transform="matrix(0 1 1 0 1415 693)" fill="white"/>
<circle r="3" transform="matrix(0 1 1 0 1437 605)" fill="white"/>
<circle r="3" transform="matrix(0 1 1 0 1437 693)" fill="white"/>
<circle opacity="0.5" r="3" transform="matrix(0 1 1 0 1371 627)" fill="white"/>
<circle opacity="0.5" r="3" transform="matrix(0 1 1 0 1371 715)" fill="white"/>
<circle opacity="0.7" r="3" transform="matrix(0 1 1 0 1393 627)" fill="white"/>
<circle opacity="0.7" r="3" transform="matrix(0 1 1 0 1393 715)" fill="white"/>
<circle r="3" transform="matrix(0 1 1 0 1415 627)" fill="white"/>
<circle r="3" transform="matrix(0 1 1 0 1415 715)" fill="white"/>
<circle r="3" transform="matrix(0 1 1 0 1437 627)" fill="white"/>
<circle r="3" transform="matrix(0 1 1 0 1437 715)" fill="white"/>
<circle opacity="0.5" r="3" transform="matrix(0 1 1 0 1371 649)" fill="white"/>
<circle opacity="0.5" r="3" transform="matrix(0 1 1 0 1371 737)" fill="white"/>
<circle opacity="0.7" r="3" transform="matrix(0 1 1 0 1393 649)" fill="white"/>
<circle opacity="0.7" r="3" transform="matrix(0 1 1 0 1393 737)" fill="white"/>
<circle r="3" transform="matrix(0 1 1 0 1415 649)" fill="white"/>
<circle r="3" transform="matrix(0 1 1 0 1415 737)" fill="white"/>
<circle r="3" transform="matrix(0 1 1 0 1437 649)" fill="white"/>
<circle r="3" transform="matrix(0 1 1 0 1437 737)" fill="white"/>
</g>
</g>
<defs>
<radialGradient id="paint0_radial" cx="0" cy="0" r="1" gradientUnits="userSpaceOnUse" gradientTransform="translate(255.5 178.449) rotate(29.8903) scale(1160.93 2862.29)">
<stop stop-color="#373995"/>
<stop offset="1" stop-color="#8F92DD"/>
</radialGradient>
<radialGradient id="paint1_radial" cx="0" cy="0" r="1" gradientUnits="userSpaceOnUse" gradientTransform="translate(255.5 96.121) rotate(30.3185) scale(1165.97 2899.42)">
<stop stop-color="#494BA4"/>
<stop offset="1" stop-color="#43A3FB"/>
</radialGradient>
</defs>
</svg>
