
<svg height='300px' width='300px'  fill="#43a3fb" xmlns="http://www.w3.org/2000/svg" xmlns:xlink="http://www.w3.org/1999/xlink" version="1.1" x="0px" y="0px" viewBox="0 0 100 100" style="enable-background:new 0 0 100 100;" xml:space="preserve"><path d="M22.0834961,36.6879883v44.8037109c-0.0019531,0.1484375-0.0273438,3.6601562,2.4223633,6.1474609  C26.0483398,89.2055664,28.1894531,90,30.8696289,90h38.2607422c2.6801758,0,4.8212891-0.7944336,6.3637695-2.3608398  c2.449707-2.4873047,2.4243164-5.9990234,2.4223633-6.1318359V36.6879883c0-4.7293701-3.2688599-7.5202026-5.7520752-8.9606934  c1.9449463-1.0204468,3.2764893-3.0568848,3.2764893-5.4016113v-6.2265625C75.440918,12.7358398,72.7050781,10,69.3417969,10  H30.6582031c-3.3632812,0-6.0991211,2.7358398-6.0991211,6.0991211v6.2265625c0,2.3447266,1.331543,4.3811646,3.2764893,5.4016113  C25.352356,29.1677856,22.0834961,31.9586182,22.0834961,36.6879883z M26.559082,22.3256836v-6.2265625  C26.559082,13.8388672,28.3979492,12,30.6582031,12h38.6835938c2.2602539,0,4.0991211,1.8388672,4.0991211,4.0991211v6.2265625  c0,2.2602539-1.8388672,4.0991211-4.0991211,4.0991211h-0.2114258H30.8696289h-0.2114258  C28.3979492,26.4248047,26.559082,24.5859375,26.559082,22.3256836z M31.0332031,28.4248047h37.9335938  c1.0185547,0.3569336,6.949707,2.675293,6.949707,8.2631836v44.8344727c0.0004883,0.0283203,0.0214844,2.815918-1.847168,4.7138672  C72.9165039,87.4067383,71.2548828,88,69.1303711,88H30.8696289c-2.1171875,0-3.7749023-0.5893555-4.9267578-1.7514648  c-1.862793-1.8798828-1.8598633-4.7006836-1.859375-4.7412109V36.6879883  C24.0834961,31.1000977,30.0146484,28.7817383,31.0332031,28.4248047z"></path><path d="M32.5424805,22.7011719c0.5522461,0,1-0.4477539,1-1v-5.644043c0-0.5522461-0.4477539-1-1-1s-1,0.4477539-1,1v5.644043  C31.5424805,22.253418,31.9902344,22.7011719,32.5424805,22.7011719z"></path><path d="M39.5253906,22.7011719c0.5522461,0,1-0.4477539,1-1v-5.644043c0-0.5522461-0.4477539-1-1-1s-1,0.4477539-1,1v5.644043  C38.5253906,22.253418,38.9731445,22.7011719,39.5253906,22.7011719z"></path><path d="M46.5083008,22.7011719c0.5522461,0,1-0.4477539,1-1v-5.644043c0-0.5522461-0.4477539-1-1-1s-1,0.4477539-1,1v5.644043  C45.5083008,22.253418,45.9560547,22.7011719,46.5083008,22.7011719z"></path><path d="M53.4916992,22.7011719c0.5522461,0,1-0.4477539,1-1v-5.644043c0-0.5522461-0.4477539-1-1-1s-1,0.4477539-1,1v5.644043  C52.4916992,22.253418,52.9394531,22.7011719,53.4916992,22.7011719z"></path><path d="M60.4746094,22.7011719c0.5522461,0,1-0.4477539,1-1v-5.644043c0-0.5522461-0.4477539-1-1-1s-1,0.4477539-1,1v5.644043  C59.4746094,22.253418,59.9223633,22.7011719,60.4746094,22.7011719z"></path><path d="M67.4575195,22.7011719c0.5522461,0,1-0.4477539,1-1v-5.644043c0-0.5522461-0.4477539-1-1-1s-1,0.4477539-1,1v5.644043  C66.4575195,22.253418,66.9052734,22.7011719,67.4575195,22.7011719z"></path><path d="M36.1376953,48.3833008c1.0786133,0.5478516,2.2456055,0.8251953,3.4204102,0.8251953  c0.7910156,0,1.5854492-0.1254883,2.3588867-0.378418c3.9746094-1.2993164,6.1542969-5.5976562,4.859375-9.5825195  c-0.6289062-1.934082-1.9716797-3.5053711-3.78125-4.425293c-1.8056641-0.9174805-3.8579102-1.0756836-5.7797852-0.4467773  c-3.9746094,1.2993164-6.1542969,5.5981445-4.8588867,9.5825195C32.9853516,45.8920898,34.328125,47.4633789,36.1376953,48.3833008z   M41.2954102,46.9287109c-1.4145508,0.4633789-2.9238281,0.3457031-4.2514648-0.3286133  c-1.0313721-0.5239868-1.8486328-1.3405151-2.3839722-2.3411255l10.4338379-3.4111328  C45.4515381,43.4786377,43.8990479,46.078186,41.2954102,46.9287109z M37.8369141,36.2768555  c0.5688477-0.1865234,1.1533203-0.2788086,1.7353516-0.2788086c0.8647461,0,1.7231445,0.2041016,2.5166016,0.6074219  c1.031311,0.5239868,1.8488159,1.3403931,2.3840942,2.3409424l-10.434082,3.4111938  C33.6809082,39.7269897,35.2333374,37.1277466,37.8369141,36.2768555z"></path><path d="M62.4663086,68.8085938c-3.7304688-1.8911133-8.3105469-0.3925781-10.2114258,3.3408203  c-0.9228516,1.8120117-1.0844727,3.8725586-0.4555664,5.8022461c0.6274414,1.9243164,1.9667969,3.487793,3.7714844,4.402832  c1.0947266,0.5556641,2.2631836,0.8188477,3.4160156,0.8188477c2.7719727,0,5.4521484-1.5219727,6.7954102-4.1591797  c0.9228516-1.8115234,1.0844727-3.8720703,0.4550781-5.8022461C65.6103516,71.2880859,64.2709961,69.7241211,62.4663086,68.8085938z   M59.0463867,69.9897461c0.8486328,0,1.7089844,0.1938477,2.515625,0.6025391  c1.3271484,0.6733398,2.3125,1.8242188,2.7739258,3.2397461c0.3584595,1.0996094,0.359314,2.2549438,0.0304565,3.3406982  l-9.7854614-4.9630737C55.6574707,70.7949219,57.3241577,69.9897461,59.0463867,69.9897461z M56.4750977,80.5708008  c-1.3271484-0.6728516-2.3125-1.8232422-2.7739258-3.2387695c-0.3584595-1.0995483-0.3592529-2.2550659-0.0304565-3.3411865  l9.7902222,4.9654541C61.8533325,81.0700684,58.9181519,81.8103638,56.4750977,80.5708008z"></path><path d="M56.5375977,59.0063477c0.5874023,1.5336914,1.7358398,2.7456055,3.2338867,3.4116211  c0.7949219,0.3540039,1.6381836,0.5317383,2.4829102,0.5317383c0.7426758-0.0004883,1.4868164-0.137207,2.2006836-0.4125977  c3.1513672-1.2143555,4.7314453-4.7714844,3.5234375-7.9306641l-4.6967773-12.5297852  c-0.5874023-1.5332031-1.7358398-2.7451172-3.2338867-3.4111328c-1.4941406-0.6650391-3.15625-0.706543-4.684082-0.1191406  c-3.1518555,1.215332-4.7319336,4.7749023-3.5244141,7.9282227L56.5375977,59.0063477z M66.109375,55.3183594  c0.8168945,2.1323242-0.2475586,4.5332031-2.3730469,5.3525391c-1.027832,0.3959961-2.1464844,0.3676758-3.1518555-0.0800781  c-1.0092773-0.4487305-1.7832031-1.265625-2.1762695-2.2929688l-2.024292-5.3994141l7.7052612-2.9691772l2.0177612,5.3822632  C66.1079102,55.3134766,66.1088867,55.315918,66.109375,55.3183594z M56.0830078,40.4125977  c0.4804688-0.1850586,0.9814453-0.2773438,1.480957-0.2773438c0.5683594,0,1.1357422,0.1191406,1.6708984,0.3574219  c1.0092773,0.4487305,1.7827148,1.265625,2.1762695,2.2929688l1.9760132,5.2709351l-7.7052612,2.9692383l-1.9719238-5.2597046  C52.8930664,43.6333008,53.9580078,41.2319336,56.0830078,40.4125977z"></path><path d="M35.6972656,74.9052734c1.4116211,0,2.8300781-0.4814453,3.9858398-1.4658203l10.2441406-8.6074219  c1.2495117-1.0649414,2.0083008-2.5517578,2.1367188-4.1865234c0.128418-1.6303711-0.3867188-3.2124023-1.4501953-4.4550781  c-2.1967773-2.5654297-6.0791016-2.8671875-8.6494141-0.6772461l-10.2470703,8.6098633  c-1.2495117,1.0654297-2.0087891,2.5522461-2.137207,4.1870117c-0.1279297,1.6298828,0.3867188,3.2119141,1.4501953,4.4545898  C32.2412109,74.1787109,33.9638672,74.9052734,35.6972656,74.9052734z M43.2563477,57.0400391  c0.7807617-0.6655273,1.7387695-0.9912109,2.6923828-0.9912109c1.1689453,0,2.3295898,0.4892578,3.1455078,1.4423828  c0.7158203,0.8359375,1.0620117,1.9003906,0.9760742,2.9975586c-0.0864258,1.1010742-0.5981445,2.1030273-1.4350586,2.8168945  l-4.3097534,3.6212158l-5.369873-6.2734985L43.2563477,57.0400391z M33.0092773,65.6494141l4.414856-3.7092285l5.369873,6.2734985  l-4.4004517,3.6974487c-0.0019531,0.0014648-0.0039062,0.0029297-0.0058594,0.0043945  c-1.7368164,1.4819336-4.3564453,1.2792969-5.8378906-0.4516602c-0.715332-0.8359375-1.0620117-1.9003906-0.9760742-2.9970703  C31.6606445,67.3657227,32.1723633,66.3632812,33.0092773,65.6494141z"></path></svg>
