
<svg height='300px' width='300px'  fill="#43a3fb" xmlns="http://www.w3.org/2000/svg" xmlns:xlink="http://www.w3.org/1999/xlink" version="1.1" x="0px" y="0px" viewBox="0 0 512 512" style="enable-background:new 0 0 512 512;" xml:space="preserve"><g><g><g><g><path d="M362.326,355.704c-1.882,0-3.784-0.53-5.476-1.64c-4.618-3.029-5.905-9.229-2.876-13.847      c0.482-0.735,1.099-1.657,1.826-2.744c18.452-27.585,27.809-47.2,27.809-58.299c0-4.132-0.936-5.243-5.005-5.944      c-5.443-0.936-9.097-6.107-8.16-11.551c0.937-5.442,6.116-9.098,11.551-8.159c13.736,2.363,21.614,11.713,21.614,25.654      c0,20.208-16.666,47.714-31.186,69.419c-0.687,1.027-1.271,1.899-1.727,2.595C368.777,354.115,365.584,355.704,362.326,355.704z      "></path></g><g><g><path d="M400.733,436h-86.99c-5.522,0-10-4.477-10-10s4.478-10,10-10h77.385c2.32-31.381,14.395-47.16,26.105-62.465       c9.074-11.858,17.645-23.06,22.579-42.551c0.544-2.134,1.188-6.205,1.188-13.551c0-17.318-3.658-43.639-9.547-68.691       c-1.264-5.376,2.069-10.759,7.446-12.023c5.379-1.259,10.759,2.071,12.022,7.447C457.232,251.011,461,278.4,461,297.434       c0,7.666-0.59,13.709-1.803,18.473c-5.939,23.461-16.64,37.445-26.08,49.783c-11.883,15.528-22.145,28.939-22.384,60.387       C410.691,431.569,406.227,436,400.733,436z M301.265,398.74c-0.154,0-0.309-0.004-0.465-0.011       c-5.517-0.253-9.785-4.93-9.532-10.446c0.171-3.746,0.445-8.771,0.778-11.439c1.94-16.164,14.019-46.799,28.091-71.213       c13.16-22.832,33.358-49.889,55.945-51.836c-4.697-16.752-8.492-37.595-8.492-56.127c0-6.561,0.488-12.513,1.452-17.691       c2.713-14.953,15.208-36.07,34.464-36.07c2.189,0,4.402,0.288,6.577,0.855c9.345,2.465,17.35,11.996,25.217,30.002       c2.211,5.061-0.1,10.956-5.16,13.167c-5.063,2.209-10.956-0.099-13.168-5.16c-7.302-16.714-11.982-18.666-12.029-18.683       c-0.443-0.113-0.943-0.181-1.437-0.181c-5.938,0-13.219,11.008-14.794,19.685c-0.747,4.019-1.122,8.741-1.122,14.077       c0,22.349,6.549,50.426,13.019,66.61c1.719,4.301,0.26,9.221-3.527,11.887c-3.787,2.669-8.909,2.386-12.381-0.682       c-0.381-0.336-1.561-1.17-4.273-1.635c-0.033-0.006-0.066-0.012-0.1-0.018c-0.539-0.098-1.099-0.147-1.663-0.147       c-8.231,0-23.378,11.017-41.2,41.937c-14.172,24.587-24.128,51.674-25.566,63.656c-0.077,0.621-0.336,3.03-0.651,9.922       C311.001,394.558,306.577,398.739,301.265,398.74z"></path></g><g><path d="M430.999,496h-140c-5.522,0-10-4.477-10-10v-60c0-5.523,4.478-10,10-10h40.827c5.522,0,10,4.477,10,10s-4.478,10-10,10       h-30.827v40h118.195l-6.667-40h-30.701c-5.522,0-10-4.477-10-10s4.478-10,10-10h39.173c4.889,0,9.061,3.534,9.864,8.355l10,60       c0.483,2.9-0.334,5.865-2.234,8.108C436.729,494.707,433.938,496,430.999,496z"></path></g></g><g><path d="M390.999,466.004c-2.63,0-5.21-1.07-7.07-2.931s-2.93-4.44-2.93-7.069c0-2.641,1.069-5.211,2.93-7.07      c1.86-1.87,4.44-2.93,7.07-2.93s5.21,1.06,7.069,2.93c1.86,1.859,2.931,4.43,2.931,7.07c0,2.629-1.07,5.209-2.931,7.069      C396.209,464.934,393.629,466.004,390.999,466.004z"></path></g><g><path d="M149.671,355.704c-3.257,0-6.45-1.589-8.37-4.515c-0.455-0.694-1.037-1.564-1.723-2.59      c-14.521-21.706-31.19-49.214-31.19-69.425c0-13.94,7.879-23.291,21.615-25.654c5.445-0.941,10.614,2.717,11.551,8.159      c0.937,5.443-2.717,10.615-8.159,11.551c-4.071,0.701-5.007,1.813-5.007,5.944c0,11.101,9.358,30.718,27.813,58.305      c0.725,1.084,1.34,2.005,1.821,2.737c3.03,4.618,1.743,10.817-2.875,13.848C153.457,355.174,151.553,355.704,149.671,355.704z"></path></g><g><g><path d="M198.256,436h-86.991c-5.493,0-9.958-4.431-9.999-9.924c-0.24-31.447-10.502-44.858-22.384-60.387       c-9.441-12.338-20.142-26.322-26.084-49.796C51.589,311.146,51,305.102,51,297.432c0-19.032,3.768-46.421,10.077-73.266       c1.265-5.376,6.648-8.706,12.023-7.446c5.376,1.264,8.71,6.647,7.446,12.023C74.658,253.794,71,280.114,71,297.432       c0,7.351,0.644,11.42,1.183,13.541c4.938,19.503,13.509,30.704,22.582,42.563c11.711,15.305,23.785,31.084,26.106,62.465       h77.385c5.523,0,10,4.477,10,10S203.779,436,198.256,436z M210.733,398.738c-5.312,0-9.735-4.18-9.981-9.541       c-0.317-6.902-0.575-9.306-0.646-9.878c-1.442-12.026-11.397-39.112-25.57-63.7c-17.821-30.92-32.968-41.937-41.2-41.937       c-0.564,0-1.125,0.05-1.665,0.147c-0.032,0.006-0.065,0.012-0.099,0.018c-2.713,0.465-3.892,1.297-4.271,1.635       c-3.472,3.066-8.595,3.351-12.381,0.683c-3.787-2.667-5.247-7.586-3.528-11.888c6.469-16.185,13.018-44.262,13.018-66.611       c0-5.336-0.375-10.058-1.114-14.034c-1.582-8.719-8.863-19.727-14.802-19.727c-0.494,0-0.993,0.068-1.527,0.207l0,0       c0.023,0-4.652,1.98-11.938,18.657c-2.211,5.062-8.107,7.37-13.167,5.16c-5.062-2.211-7.371-8.106-5.16-13.167       c7.866-18.006,15.871-27.537,25.189-29.995c2.2-0.574,4.413-0.862,6.604-0.862c19.257,0,31.751,21.118,34.473,36.113       c0.955,5.137,1.443,11.088,1.443,17.647c0,18.532-3.795,39.376-8.491,56.128c22.587,1.948,42.786,29.004,55.946,51.836       c14.072,24.414,26.15,55.05,28.095,71.262c0.325,2.611,0.601,7.638,0.772,11.387c0.254,5.518-4.014,10.195-9.53,10.448       C211.044,398.734,210.888,398.738,210.733,398.738z"></path></g><g><path d="M220.999,496h-140c-2.939,0-5.729-1.293-7.63-3.536s-2.717-5.208-2.233-8.108l10-60       c0.804-4.821,4.976-8.355,9.863-8.355h39.173c5.522,0,10,4.477,10,10s-4.478,10-10,10H99.471l-6.667,40h118.195v-40h-30.827       c-5.523,0-10-4.477-10-10s4.477-10,10-10h40.827c5.523,0,10,4.477,10,10v60C230.999,491.523,226.522,496,220.999,496z"></path></g></g><g><path d="M120.999,466.004c-2.63,0-5.21-1.07-7.07-2.931c-1.859-1.86-2.93-4.44-2.93-7.069c0-2.641,1.07-5.211,2.93-7.07      c1.86-1.87,4.44-2.93,7.07-2.93s5.21,1.06,7.07,2.93c1.859,1.859,2.93,4.43,2.93,7.07c0,2.629-1.07,5.209-2.93,7.069      C126.209,464.934,123.629,466.004,120.999,466.004z"></path></g><g><path d="M378.526,106.003c-3.667,0-7.197-2.024-8.95-5.526C349.974,61.309,305.392,36,255.999,36      c-49.392,0-93.974,25.308-113.576,64.476c-2.471,4.938-8.479,6.94-13.418,4.467c-4.938-2.472-6.938-8.479-4.467-13.418      C147.5,45.645,199.102,16,255.999,16c56.898,0,108.5,29.646,131.462,75.526c2.472,4.939,0.472,10.946-4.467,13.418      C381.558,105.663,380.03,106.003,378.526,106.003z"></path></g><g><path d="M320.999,246h-130c-5.522,0-10-4.477-10-10v-25c0-24.993,16.815-48.053,42.84-58.748c4.273-1.755,9.19-0.357,11.9,3.384      c4.699,6.489,12.273,10.364,20.26,10.364s15.561-3.875,20.261-10.364c2.709-3.741,7.628-5.14,11.9-3.383      c9.785,4.022,18.623,9.97,25.558,17.201c3.822,3.986,3.689,10.316-0.296,14.139c-3.985,3.822-10.315,3.691-14.14-0.296      c-3.521-3.671-7.755-6.9-12.464-9.527C278.541,181.536,267.51,186,255.999,186c-11.518,0-22.554-4.469-30.832-12.243      c-15.065,8.333-24.168,22.13-24.168,37.243v15h110v-3.493c0-5.523,4.478-10,10-10s10,4.477,10,10V236      C330.999,241.523,326.521,246,320.999,246z"></path></g><g><path d="M255.999,186c-14.38,0-28.009-6.966-36.458-18.633c-5.588-7.716-8.542-16.833-8.542-26.366      c0-0.987,0.033-1.988,0.097-2.976c1.45-22.373,19.408-40.394,41.771-41.918c1.043-0.071,2.097-0.107,3.133-0.107      c24.813,0,45,20.187,45,45c0,9.534-2.953,18.651-8.542,26.367C284.008,179.035,270.378,186,255.999,186z M255.999,116      c-0.584,0-1.181,0.021-1.772,0.061c-12.406,0.845-22.368,10.845-23.173,23.26c-0.036,0.559-0.055,1.124-0.055,1.679      c0,5.293,1.64,10.354,4.74,14.636c4.699,6.489,12.273,10.364,20.26,10.364s15.561-3.875,20.261-10.364      c3.101-4.281,4.739-9.342,4.739-14.636C280.999,127.215,269.784,116,255.999,116z"></path></g><g><path d="M390.999,126.003c-2.63,0-5.21-1.07-7.07-2.93s-2.93-4.44-2.93-7.07c0-2.64,1.069-5.21,2.93-7.07      c1.86-1.86,4.44-2.93,7.07-2.93s5.21,1.07,7.069,2.93c1.86,1.86,2.931,4.44,2.931,7.07s-1.07,5.21-2.931,7.07      C396.209,124.933,393.629,126.003,390.999,126.003z"></path></g><g><path d="M120.999,126.003c-2.63,0-5.21-1.07-7.07-2.93c-1.859-1.86-2.93-4.44-2.93-7.07c0-2.64,1.07-5.21,2.93-7.07      c1.86-1.87,4.44-2.93,7.07-2.93s5.21,1.06,7.07,2.93c1.859,1.86,2.93,4.43,2.93,7.07c0,2.63-1.07,5.21-2.93,7.07      C126.209,124.933,123.629,126.003,120.999,126.003z"></path></g></g></g></g></svg>
