<svg height='300px' width='300px'  fill="#43a3fb" xmlns="http://www.w3.org/2000/svg" viewBox="0 0 64 64" x="0px" y="0px"><g><path d="M19.09,37.91A5,5,0,0,0,29,37V21a4.992,4.992,0,0,0-9.04-2.93A7.015,7.015,0,0,1,26,25H24a5,5,0,0,0-4.9-4.99A5.359,5.359,0,0,0,19,21a5,5,0,0,0,5,5v2a7.008,7.008,0,0,1-7-7,5.683,5.683,0,0,1,.03-.59A5,5,0,0,0,19,30v2a6.978,6.978,0,0,1-5.63-2.86A4.823,4.823,0,0,0,13,31a5,5,0,0,0,10,0h2A7.013,7.013,0,0,1,19.09,37.91Z"></path><path d="M42.95,20.4c.02.2.05.4.05.6v-.58C42.98,20.42,42.97,20.4,42.95,20.4Z"></path><path d="M47.64,22.78a7,7,0,0,1,.07,4.21,6.961,6.961,0,0,1-4.78,10.94A6.992,6.992,0,0,1,30,40.6a6.992,6.992,0,0,1-12.93-2.67,6.961,6.961,0,0,1-4.78-10.94A6.89,6.89,0,0,1,12,25a7.005,7.005,0,0,1,5.62-6.86A6.99,6.99,0,0,1,30,17.4a6.957,6.957,0,0,1,8-3.1V11.55a21.414,21.414,0,0,0-6.98-1.53A22.112,22.112,0,0,0,8.95,25.3L4.28,44H11a1,1,0,0,1,1,1v4a5,5,0,0,0,5,5h7a1,1,0,0,1,1,1v5H43V50.24a.985.985,0,0,1,.39-.79,22,22,0,0,0,8.55-19.01,21.657,21.657,0,0,0-2.78-9.19Z"></path><path d="M38,16.42A5,5,0,0,0,31,21V37a5,5,0,0,0,9.91.91A7.013,7.013,0,0,1,35,31h2a5,5,0,0,0,10,0,4.823,4.823,0,0,0-.37-1.86A6.978,6.978,0,0,1,41,32V30a5,5,0,0,0,5-5,4.776,4.776,0,0,0-.06-.53l-1.23,1.24A1.007,1.007,0,0,1,44,26a.838.838,0,0,1-.38-.08A.987.987,0,0,1,43,25V21a7.008,7.008,0,0,1-7,7V26a5,5,0,0,0,5-5,4.621,4.621,0,0,0-.11-.99A5,5,0,0,0,36,25H34a7,7,0,0,1,4.42-6.5A2.94,2.94,0,0,1,38,17Z"></path><path d="M59,4H41a1,1,0,0,0-1,1V17a1,1,0,0,0,1,1h3a1,1,0,0,1,1,1v3.59l4.29-4.3A1.033,1.033,0,0,1,50,18h9a1,1,0,0,0,1-1V5A1,1,0,0,0,59,4ZM42,6h2V8H42ZM58,16H42V14H58Zm0-4H42V10H58Zm0-4H46V6H58Z"></path></g></svg>
