<svg width="135" height="40" viewBox="0 0 135 40" fill="none" xmlns="http://www.w3.org/2000/svg">
<path fill-rule="evenodd" clip-rule="evenodd" d="M129.998 40H5.00184C2.24512 40 0 37.7456 0 35V5C0 2.24439 2.24512 0 5.00184 0H129.998C132.752 0 135 2.24439 135 5V35C135 37.7456 132.752 40 129.998 40Z" fill="#16142F"/>
<path fill-rule="evenodd" clip-rule="evenodd" d="M129.998 0.800499C132.31 0.800499 134.203 2.68828 134.203 5V35C134.203 37.3117 132.323 39.1995 129.998 39.1995H5.00184C2.68967 39.1995 0.797215 37.3117 0.797215 35V5C0.797215 2.68828 2.67725 0.800499 5.00184 0.800499H129.998ZM129.998 0H5.00184C2.24512 0 0 2.25436 0 5V35C0 37.7556 2.24512 40 5.00184 40H129.998C132.752 40 135 37.7556 135 35V5C135 2.25436 132.752 0 129.998 0Z" fill="#A6A6A6"/>
<path d="M71.1183 13.232C70.2168 13.232 69.4568 12.9153 68.8558 12.2918C68.2598 11.6858 67.927 10.8504 67.9419 9.99755C67.9419 9.08732 68.2498 8.31675 68.8558 7.70577C69.4543 7.08233 70.2143 6.76562 71.1158 6.76562C72.0074 6.76562 72.7673 7.08233 73.3783 7.70577C73.9843 8.3367 74.2922 9.10727 74.2922 9.99755C74.2823 10.9103 73.9743 11.6808 73.3783 12.2893C72.7798 12.9177 72.0198 13.232 71.1183 13.232ZM44.2938 13.232C43.4121 13.232 42.6472 12.9202 42.0214 12.3043C41.4005 11.6908 41.0851 10.9153 41.0851 10C41.0851 9.08483 41.4005 8.30927 42.0214 7.6958C42.6348 7.07984 43.3997 6.76812 44.2938 6.76812C44.7309 6.76812 45.1556 6.8554 45.5629 7.03246C45.9627 7.20453 46.2881 7.43894 46.529 7.72572L46.5886 7.79804L45.9155 8.46139L45.846 8.37909C45.466 7.92523 44.9569 7.70328 44.2839 7.70328C43.6828 7.70328 43.1588 7.91774 42.7267 8.34169C42.2921 8.76812 42.071 9.32672 42.071 10.0025C42.071 10.6783 42.2921 11.2369 42.7267 11.6634C43.1588 12.0873 43.6828 12.3018 44.2839 12.3018C44.9246 12.3018 45.4635 12.0873 45.8832 11.6634C46.1316 11.414 46.2856 11.0649 46.3402 10.6235H44.182V9.69081H47.2666L47.279 9.7756C47.3013 9.93271 47.3237 10.0948 47.3237 10.2444C47.3237 11.1048 47.0654 11.8005 46.5538 12.3143C45.9726 12.9227 45.2127 13.232 44.2938 13.232ZM79.9596 13.0998H79.0084L76.0953 8.41899L76.1201 9.26188V13.0973H75.1689V6.90029H76.2542L76.284 6.94767L79.0233 11.3566L78.9985 10.5162V6.90029H79.9596V13.0998ZM63.9707 13.0998H63.0071V7.83296H61.3357V6.90029H65.6396V7.83296H63.9682V13.0998H63.9707ZM60.5509 13.0998H59.5898V6.90029H60.5509V13.0998ZM55.1493 13.0998H54.1881V7.83296H52.5167V6.90029H56.8207V7.83296H55.1493V13.0998ZM51.9083 13.0898H48.2227V6.90029H51.9083V7.83296H49.1863V9.5337H51.6425V10.4564H49.1863V12.1571H51.9083V13.0898ZM69.5611 11.6509C69.9908 12.0823 70.5123 12.2993 71.1183 12.2993C71.7417 12.2993 72.2508 12.0873 72.6755 11.6509C73.0977 11.227 73.3112 10.6709 73.3112 10C73.3112 9.32922 73.0977 8.77061 72.6779 8.34917C72.2483 7.91774 71.7243 7.70079 71.1208 7.70079C70.4974 7.70079 69.9883 7.91276 69.5661 8.34917C69.1439 8.77311 68.9303 9.32922 68.9303 10C68.9303 10.6709 69.1414 11.2295 69.5611 11.6509Z" fill="white"/>
<path fill-rule="evenodd" clip-rule="evenodd" d="M67.8526 21.7564C65.5056 21.7564 63.6032 23.5444 63.6032 26.0108C63.6032 28.4546 65.518 30.2651 67.8526 30.2651C70.1995 30.2651 72.1019 28.4646 72.1019 26.0108C72.1019 23.5444 70.1995 21.7564 67.8526 21.7564ZM67.8526 28.5793C66.5686 28.5793 65.4634 27.512 65.4634 26.0008C65.4634 24.4671 66.5711 23.4222 67.8526 23.4222C69.1366 23.4222 70.2417 24.4671 70.2417 26.0008C70.2442 27.522 69.1366 28.5793 67.8526 28.5793ZM58.5815 21.7564C56.2346 21.7564 54.3322 23.5444 54.3322 26.0108C54.3322 28.4546 56.247 30.2651 58.5815 30.2651C60.9285 30.2651 62.8309 28.4646 62.8309 26.0108C62.8309 23.5444 60.926 21.7564 58.5815 21.7564ZM58.5815 28.5793C57.2975 28.5793 56.1924 27.512 56.1924 26.0008C56.1924 24.4671 57.3 23.4222 58.5815 23.4222C59.8655 23.4222 60.9707 24.4671 60.9707 26.0008C60.9707 27.522 59.8655 28.5793 58.5815 28.5793ZM47.5496 23.0556V24.8561H51.8536C51.722 25.8661 51.3892 26.6118 50.8801 27.123C50.2492 27.7564 49.2757 28.4447 47.5596 28.4447C44.9146 28.4447 42.8458 26.3 42.8458 23.6442C42.8458 20.9883 44.9146 18.8437 47.5596 18.8437C48.9876 18.8437 50.0282 19.4098 50.8006 20.133L52.0722 18.8561C50.9993 17.8237 49.5712 17.0332 47.5695 17.0332C43.9411 17.0332 40.8962 20.0008 40.8962 23.6342C40.8962 27.2776 43.9386 30.2352 47.5695 30.2352C49.529 30.2352 50.9993 29.5918 52.1616 28.3798C53.3462 27.1903 53.7212 25.512 53.7212 24.1579C53.7212 23.7364 53.6889 23.3574 53.6219 23.0357H47.5472C47.5496 23.0332 47.5496 23.0556 47.5496 23.0556ZM92.673 24.4571C92.3179 23.502 91.245 21.7464 89.0446 21.7464C86.8641 21.7464 85.0511 23.4696 85.0511 26.0008C85.0511 28.3898 86.8442 30.2551 89.2557 30.2551C91.1929 30.2551 92.3204 29.0656 92.7848 28.3674L91.3468 27.3998C90.87 28.1105 90.2069 28.5768 89.2656 28.5768C88.3144 28.5768 87.6488 28.1429 87.2068 27.2876L92.8717 24.931C92.8717 24.9335 92.673 24.4571 92.673 24.4571ZM86.8963 25.8786C86.8516 24.2352 88.1679 23.3998 89.1092 23.3998C89.8517 23.3998 90.4701 23.7664 90.6813 24.3L86.8963 25.8786ZM82.2943 30.0008H84.1545V17.502H82.2943V30.0008ZM79.2396 22.7015H79.1725C78.7528 22.2003 77.9556 21.7464 76.9373 21.7464C74.8239 21.7464 72.8768 23.6142 72.8768 26.0133C72.8768 28.4023 74.8139 30.2477 76.9373 30.2477C77.9432 30.2477 78.7528 29.7913 79.1725 29.2801H79.2396V29.8911C79.2396 31.5145 78.3753 32.3898 76.9821 32.3898C75.8421 32.3898 75.1343 31.5669 74.8462 30.8786L73.2294 31.5569C73.6939 32.6791 74.9331 34.0681 76.9796 34.0681C79.1601 34.0681 81.0079 32.7788 81.0079 29.6342V22.0008H79.2495V22.7015C79.252 22.7015 79.2396 22.7015 79.2396 22.7015ZM77.1037 28.5793C75.8198 28.5793 74.7469 27.502 74.7469 26.0133C74.7469 24.512 75.8198 23.4247 77.1037 23.4247C78.3753 23.4247 79.3613 24.5245 79.3613 26.0133C79.3737 27.502 78.3778 28.5793 77.1037 28.5793ZM101.383 17.502H96.9348V30.0008H98.795V25.2676H101.385C103.444 25.2676 105.468 23.7689 105.468 21.3898C105.468 19.0108 103.452 17.502 101.383 17.502ZM101.437 23.522H98.7925V19.2327H101.437C102.831 19.2327 103.618 20.3873 103.618 21.3773C103.618 22.3574 102.821 23.522 101.437 23.522ZM112.924 21.734C111.573 21.734 110.18 22.3349 109.603 23.6442L111.252 24.3325C111.608 23.6442 112.258 23.4098 112.946 23.4098C113.91 23.4098 114.883 23.9883 114.906 25.0207V25.1529C114.573 24.9634 113.843 24.6741 112.969 24.6741C111.188 24.6741 109.382 25.6517 109.382 27.4846C109.382 29.1629 110.843 30.2402 112.469 30.2402C113.719 30.2402 114.406 29.6741 114.836 29.0182H114.903V29.9858H116.696V25.1978C116.696 22.9684 115.047 21.734 112.924 21.734ZM112.69 28.5793C112.082 28.5793 111.23 28.2801 111.23 27.512C111.23 26.5444 112.293 26.1778 113.199 26.1778C114.019 26.1778 114.407 26.3549 114.893 26.5993C114.759 27.7215 113.815 28.5694 112.69 28.5793ZM123.238 22.0008L121.102 27.4222H121.035L118.822 22.0008H116.82L120.141 29.5793L118.249 33.7913H120.186L125.294 22.0008H123.238ZM106.494 30.0008H108.354V17.502H106.494V30.0008Z" fill="white"/>
<path fill-rule="evenodd" clip-rule="evenodd" d="M10.3911 7.53413C10.103 7.84585 9.93665 8.32216 9.93665 8.9456V31.0578C9.93665 31.6813 10.103 32.1576 10.4011 32.4568L10.4781 32.5242L22.8163 20.1351V19.8583L10.4681 7.4668L10.3911 7.53413Z" fill="url(#paint0_linear)"/>
<path fill-rule="evenodd" clip-rule="evenodd" d="M26.9214 24.2763L22.8062 20.1441V19.8548L26.9214 15.7227L27.0108 15.7775L31.8786 18.5556C33.2718 19.3436 33.2718 20.6454 31.8786 21.4434L27.0108 24.2214L26.9214 24.2763Z" fill="url(#paint1_linear)"/>
<path fill-rule="evenodd" clip-rule="evenodd" d="M27.0109 24.2219L22.8063 20L10.3911 32.4663C10.8456 32.9551 11.608 33.01 12.4599 32.5337L27.0109 24.2219Z" fill="url(#paint2_linear)"/>
<path fill-rule="evenodd" clip-rule="evenodd" d="M27.0109 15.7784L12.4599 7.47918C11.608 6.9904 10.8431 7.05774 10.3911 7.54651L22.8063 20.0004L27.0109 15.7784Z" fill="url(#paint3_linear)"/>
<path opacity="0.2" fill-rule="evenodd" clip-rule="evenodd" d="M26.9216 24.1328L12.4698 32.3772C11.6626 32.8435 10.9424 32.8111 10.478 32.3871L10.401 32.4645L10.478 32.5318C10.9424 32.9532 11.6626 32.9881 12.4698 32.5218L27.0209 24.2226L26.9216 24.1328Z" fill="#16142F"/>
<path opacity="0.12" fill-rule="evenodd" clip-rule="evenodd" d="M31.8786 21.2993L26.9091 24.1322L26.9985 24.2219L31.8662 21.4439C32.5641 21.0449 32.9068 20.5212 32.9068 20C32.8646 20.4788 32.5094 20.9327 31.8786 21.2993Z" fill="#16142F"/>
<path opacity="0.25" fill-rule="evenodd" clip-rule="evenodd" d="M12.4599 7.62427L31.8787 18.7016C32.5095 19.0582 32.8646 19.5245 32.9193 20.0008C32.9193 19.4796 32.5766 18.9559 31.8787 18.5569L12.4599 7.47963C11.0667 6.67913 9.93665 7.34746 9.93665 8.94597V9.0906C9.93665 7.48961 11.0667 6.83375 12.4599 7.62427Z" fill="white"/>
<defs>
<linearGradient id="paint0_linear" x1="21.7095" y1="8.70703" x2="1.93514" y2="13.9543" gradientUnits="userSpaceOnUse">
<stop stop-color="#00A0FF"/>
<stop offset="0.00657" stop-color="#00A1FF"/>
<stop offset="0.2601" stop-color="#00BEFF"/>
<stop offset="0.5122" stop-color="#00D2FF"/>
<stop offset="0.7604" stop-color="#00DFFF"/>
<stop offset="1" stop-color="#00E3FF"/>
</linearGradient>
<linearGradient id="paint1_linear" x1="33.6955" y1="19.9995" x2="9.59777" y2="19.9995" gradientUnits="userSpaceOnUse">
<stop stop-color="#FFE000"/>
<stop offset="0.4087" stop-color="#FFBD00"/>
<stop offset="0.7754" stop-color="#FFA500"/>
<stop offset="1" stop-color="#FF9C00"/>
</linearGradient>
<linearGradient id="paint2_linear" x1="24.7246" y1="22.2973" x2="8.76185" y2="49.0538" gradientUnits="userSpaceOnUse">
<stop stop-color="#FF3A44"/>
<stop offset="1" stop-color="#C31162"/>
</linearGradient>
<linearGradient id="paint3_linear" x1="7.26483" y1="0.179171" x2="14.3865" y2="12.1291" gradientUnits="userSpaceOnUse">
<stop stop-color="#32A071"/>
<stop offset="0.0685" stop-color="#2DA771"/>
<stop offset="0.4762" stop-color="#15CF74"/>
<stop offset="0.8009" stop-color="#06E775"/>
<stop offset="1" stop-color="#00F076"/>
</linearGradient>
</defs>
</svg>
