
<svg height='300px' width='300px'  fill="#43a3fb" xmlns="http://www.w3.org/2000/svg" data-name="Layer 1" viewBox="0 0 64 64" x="0px" y="0px"><title>forecasting-forecast-plan-analysis-foretell-predict</title><path d="M28,6A20,20,0,1,0,48,26,20.023,20.023,0,0,0,28,6Zm0,38A18,18,0,1,1,46,26,18.021,18.021,0,0,1,28,44Z"></path><path d="M60.882,39.472a1,1,0,0,0-.05-1.027L53,26.688a25,25,0,0,0-50,.3V61a1,1,0,0,0,1,1H32a1,1,0,0,0,1-1V55H51a1,1,0,0,0,1-1V40h8A1,1,0,0,0,60.882,39.472ZM51,38a1,1,0,0,0-1,1V53H32a1,1,0,0,0-1,1v6H5V26.993a23,23,0,0,1,46,0,1.006,1.006,0,0,0,.168.555L58.132,38Z"></path><path d="M35,17V12a1,1,0,0,0-1-1H29v2h2.086l-6,4.669-3.376-3.376a1,1,0,0,0-1.332-.074l-5,4,1.25,1.562,4.3-3.441,3.367,3.367a1,1,0,0,0,1.321.082L33,14.044V17Z"></path><rect x="42" y="21" width="2" height="9"></rect><rect x="38" y="24" width="2" height="6"></rect><rect x="34" y="26" width="2" height="4"></rect><path d="M31.27,29.086l-1.477-.525c-.078-.218-.166-.432-.263-.639l.671-1.415a1,1,0,0,0-.116-1.045,9.029,9.029,0,0,0-1.547-1.548,1,1,0,0,0-1.045-.115l-1.415.672c-.207-.1-.421-.186-.639-.264l-.525-1.478a1,1,0,0,0-.824-.658,9.242,9.242,0,0,0-2.18,0,1,1,0,0,0-.824.658l-.525,1.478q-.327.117-.639.264L18.507,23.8a1,1,0,0,0-1.045.116,8.987,8.987,0,0,0-1.547,1.547,1,1,0,0,0-.116,1.045l.672,1.414q-.147.312-.264.64l-1.478.525a1,1,0,0,0-.657.821,8.332,8.332,0,0,0,0,2.186,1,1,0,0,0,.658.821l1.477.525c.078.218.166.432.263.639L15.8,35.493a1,1,0,0,0,.116,1.045,9.029,9.029,0,0,0,1.547,1.548,1.006,1.006,0,0,0,1.045.115l1.415-.672c.207.1.421.186.639.264l.525,1.478a1,1,0,0,0,.824.658,8.4,8.4,0,0,0,2.18,0,1,1,0,0,0,.824-.658l.525-1.478q.327-.117.639-.264l1.415.672a1,1,0,0,0,1.045-.115,9.04,9.04,0,0,0,1.548-1.549,1,1,0,0,0,.115-1.044l-.671-1.415c.1-.207.185-.421.263-.639l1.477-.525a1,1,0,0,0,.658-.821,8.332,8.332,0,0,0,0-2.186A1,1,0,0,0,31.27,29.086ZM30,31.245l-1.339.476a1,1,0,0,0-.629.675,5.21,5.21,0,0,1-.483,1.172,1,1,0,0,0-.033.921l.606,1.278q-.169.18-.351.35l-1.277-.606a1,1,0,0,0-.921.032,5.183,5.183,0,0,1-1.172.483,1.006,1.006,0,0,0-.675.629l-.476,1.339c-.163.008-.327.008-.49,0l-.476-1.339a1.006,1.006,0,0,0-.675-.629,5.191,5.191,0,0,1-1.173-.483,1,1,0,0,0-.92-.032l-1.277.606q-.182-.169-.351-.351l.606-1.277a1,1,0,0,0-.033-.921,5.21,5.21,0,0,1-.483-1.172,1,1,0,0,0-.629-.675l-1.339-.476c0-.081,0-.163,0-.245s0-.164,0-.245l1.34-.477a1,1,0,0,0,.628-.674,5.164,5.164,0,0,1,.483-1.171,1,1,0,0,0,.034-.922l-.607-1.277q.169-.182.351-.351l1.277.606a1,1,0,0,0,.921-.032,5.183,5.183,0,0,1,1.172-.483,1.006,1.006,0,0,0,.675-.629l.476-1.339c.163-.008.327-.008.49,0l.476,1.339a1.006,1.006,0,0,0,.675.629,5.191,5.191,0,0,1,1.173.483,1,1,0,0,0,.92.032l1.277-.606q.182.169.351.351l-.606,1.277a1,1,0,0,0,.033.921,5.21,5.21,0,0,1,.483,1.172,1,1,0,0,0,.629.675L30,30.755c0,.081,0,.163,0,.245S30,31.164,30,31.245Z"></path><path d="M23,28a3,3,0,1,0,3,3A3,3,0,0,0,23,28Zm0,4a1,1,0,1,1,1-1A1,1,0,0,1,23,32Z"></path></svg>
