<svg height='300px' width='300px'  fill="#43a3fb" xmlns="http://www.w3.org/2000/svg" xmlns:xlink="http://www.w3.org/1999/xlink" version="1.1" x="0px" y="0px" viewBox="0 0 64 64" style="enable-background:new 0 0 64 64;" xml:space="preserve"><title>Hyperconnectedandrealtime-technologydisruption-realtime-report-monitoring-operation</title><rect x="30" y="56" width="4" height="2"></rect><path d="M52,22c-1.1,0-2.3,0.2-3.3,0.6l0.7,1.9c4.2-1.5,8.7,0.7,10.2,4.9c1.5,4.2-0.7,8.7-4.9,10.2c-4.2,1.5-8.7-0.7-10.2-4.9  C44.2,33.8,44,32.9,44,32h-2c0,5.1,3.9,9.4,9,9.9V52H13V5c0-0.6,0.4-1,1-1h36c0.6,0,1,0.4,1,1v7h2V5c0-1.7-1.3-3-3-3H14  c-1.7,0-3,1.3-3,3v54c0,1.7,1.3,3,3,3h36c1.7,0,3-1.3,3-3V41.9c5.5-0.6,9.5-5.5,8.9-10.9C61.4,25.9,57.1,22,52,22z M50,60H14  c-0.6,0-1-0.4-1-1v-5h38v5C51,59.6,50.6,60,50,60z"></path><path d="M47.6,25.3l-1.1-1.7c-0.7,0.5-1.3,1-1.9,1.6l1.5,1.3C46.5,26.2,47,25.7,47.6,25.3z"></path><path d="M44.8,28.4L43,27.6c-0.4,0.7-0.6,1.5-0.8,2.2l2,0.4C44.3,29.6,44.6,29,44.8,28.4z"></path><polygon points="51,26 51,32.4 55.3,36.7 56.7,35.3 53,31.6 53,26 "></polygon><path d="M44,22h-2V7h-6v15h-3V9h-6v13h-3V12h-6v10h-2v2h28V22z M38,9h2v13h-2V9z M29,11h2v11h-2V11z M20,14h2v8h-2V14z"></path><rect x="16" y="27" width="21" height="2"></rect><rect x="16" y="32" width="12" height="2"></rect><rect x="31" y="32" width="6" height="2"></rect><rect x="16" y="37" width="12" height="2"></rect><rect x="31" y="37" width="6" height="2"></rect><rect x="16" y="42" width="12" height="2"></rect><rect x="31" y="42" width="6" height="2"></rect><rect x="40" y="42" width="6" height="2"></rect><rect x="16" y="47" width="12" height="2"></rect><rect x="31" y="47" width="6" height="2"></rect><rect x="40" y="47" width="8" height="2"></rect><path d="M57.7,16.3c-3.2-3-8.2-3-11.4,0l1.4,1.4c2.4-2.3,6.2-2.3,8.6,0L57.7,16.3z"></path><path d="M49.2,19.4l1.5,1.3c0.5-0.7,1.5-0.8,2.1-0.3c0.1,0.1,0.2,0.2,0.3,0.3l1.5-1.3c-1.2-1.5-3.4-1.8-4.9-0.6  C49.6,18.9,49.4,19.1,49.2,19.4z"></path></svg>
