<svg width="30" height="30" viewBox="0 0 30 30" fill="none" xmlns="http://www.w3.org/2000/svg">
<rect x="0.25" y="0.25" width="29.5" height="29.5" rx="4.75" stroke="white" stroke-width="0.5"/>
<path d="M22.5 11.2041C21.9643 11.4337 21.352 11.5867 20.7398 11.6633C21.352 11.2806 21.8878 10.6684 22.1173 9.97959C21.5051 10.3622 20.8929 10.5918 20.1276 10.7449C19.5918 10.1327 18.75 9.75 17.9082 9.75C16.2245 9.75 14.8469 11.1276 14.8469 12.8112C14.8469 13.0408 14.8469 13.2704 14.9235 13.5C12.398 13.3469 10.102 12.1224 8.57142 10.2857C8.34183 10.7449 8.18877 11.2806 8.18877 11.8163C8.18877 12.8878 8.72449 13.8061 9.56633 14.3418C9.03061 14.3418 8.57142 14.1888 8.18877 13.9592C8.18877 15.4133 9.2602 16.7143 10.6377 16.9439C10.4082 17.0204 10.102 17.0204 9.79592 17.0204C9.56633 17.0204 9.41326 17.0204 9.18367 16.9439C9.56633 18.1684 10.7143 19.0867 12.0918 19.0867C11.0204 19.9286 9.71939 20.3878 8.26531 20.3878C8.03571 20.3878 7.80612 20.3878 7.5 20.3112C8.87755 21.1531 10.4847 21.6888 12.2449 21.6888C17.9082 21.6888 20.9694 17.0204 20.9694 12.9643V12.5816C21.5816 12.352 22.1173 11.8163 22.5 11.2041Z" fill="white"/>
</svg>
