<svg width="1707" height="536" viewBox="0 0 1707 536" fill="none" xmlns="http://www.w3.org/2000/svg">
<path d="M934.881 304.467C933.575 304.467 932.495 304.053 931.641 303.226C930.788 302.4 930.361 301.36 930.361 300.093V195.267C930.361 194.013 930.788 192.973 931.641 192.147C932.495 191.32 933.575 190.907 934.881 190.907C936.188 190.907 937.268 191.32 938.121 192.147C938.961 192.973 939.401 194.013 939.401 195.267V243.253H1015.43V195.267C1015.43 194.013 1015.85 192.973 1016.71 192.147C1017.56 191.32 1018.64 190.907 1019.95 190.907C1021.15 190.907 1022.2 191.32 1023.11 192.147C1024.01 192.973 1024.47 194.013 1024.47 195.267V300.093C1024.47 301.36 1024.01 302.4 1023.11 303.226C1022.2 304.053 1021.09 304.467 1019.8 304.467C1018.59 304.467 1017.56 304.053 1016.71 303.226C1015.85 302.4 1015.43 301.36 1015.43 300.093V251.107H939.401V300.093C939.401 301.36 938.961 302.4 938.121 303.226C937.268 304.053 936.188 304.467 934.881 304.467Z" fill="#43A3FB"/>
<path d="M1059.09 304.467C1057.79 304.467 1056.71 304.053 1055.85 303.226C1055 302.4 1054.57 301.36 1054.57 300.093V195.267C1054.57 194.013 1055 192.973 1055.85 192.147C1056.71 191.32 1057.79 190.907 1059.09 190.907H1131.51C1132.72 190.907 1133.77 191.32 1134.67 192.147C1135.57 192.973 1136.03 194.013 1136.03 195.267C1136.03 196.427 1135.57 197.453 1134.67 198.32C1133.77 199.2 1132.72 199.626 1131.51 199.626H1063.61V243.253H1113.44C1114.75 243.253 1115.83 243.667 1116.68 244.48C1117.53 245.307 1117.96 246.36 1117.96 247.613C1117.96 248.867 1117.53 249.933 1116.68 250.813C1115.83 251.68 1114.75 252.12 1113.44 252.12H1063.61V295.733H1131.51C1132.72 295.733 1133.77 296.173 1134.67 297.053C1135.57 297.92 1136.03 298.933 1136.03 300.093C1136.03 301.36 1135.57 302.4 1134.67 303.226C1133.77 304.053 1132.72 304.467 1131.51 304.467H1059.09Z" fill="#43A3FB"/>
<path d="M1161.32 275.96L1164.94 268.107H1227.57L1231.03 275.96H1161.32ZM1150.17 304.467C1148.27 304.467 1146.95 303.733 1146.19 302.28C1145.44 300.827 1145.41 299.467 1146.11 298.213L1191.74 193.96C1192.54 191.92 1193.99 190.907 1196.09 190.907C1198.11 190.907 1199.56 191.92 1200.47 193.96L1246.24 298.213C1247.04 299.573 1246.99 300.947 1246.08 302.347C1245.19 303.76 1243.88 304.467 1242.17 304.467C1241.16 304.467 1240.33 304.24 1239.69 303.813C1239.03 303.373 1238.45 302.666 1237.96 301.693L1193.69 199.773H1198.51L1154.4 301.693C1153.99 302.666 1153.44 303.373 1152.74 303.813C1152.03 304.24 1151.19 304.467 1150.17 304.467Z" fill="#43A3FB"/>
<path d="M1268.21 304.467C1267.01 304.467 1265.96 304.053 1265.05 303.226C1264.15 302.4 1263.71 301.36 1263.71 300.093V195.267C1263.71 194.013 1264.15 192.973 1265.05 192.147C1265.96 191.32 1267.01 190.907 1268.21 190.907C1269.52 190.907 1270.6 191.32 1271.45 192.147C1272.31 192.973 1272.73 194.013 1272.73 195.267V296.613H1334.61C1336.01 296.613 1337.12 296.973 1337.93 297.707C1338.73 298.427 1339.13 299.373 1339.13 300.533C1339.13 301.693 1338.73 302.64 1337.93 303.373C1337.12 304.093 1336.01 304.467 1334.61 304.467H1268.21" fill="#43A3FB"/>
<path d="M1372.25 304.467C1370.95 304.467 1369.87 304.053 1369.01 303.226C1368.16 302.4 1367.73 301.36 1367.73 300.093V190.907H1376.77V300.093C1376.77 301.36 1376.35 302.4 1375.49 303.226C1374.64 304.053 1373.56 304.467 1372.25 304.467V304.467ZM1329.64 198.76C1328.44 198.76 1327.47 198.4 1326.71 197.667C1325.96 196.947 1325.59 196 1325.59 194.84C1325.59 193.667 1325.96 192.72 1326.71 192C1327.47 191.267 1328.44 190.907 1329.64 190.907H1414.87C1416.07 190.907 1417.05 191.267 1417.8 192C1418.55 192.72 1418.93 193.667 1418.93 194.84C1418.93 196 1418.55 196.947 1417.8 197.667C1417.05 198.4 1416.07 198.76 1414.87 198.76H1329.64Z" fill="#43A3FB"/>
<path d="M1440.76 304.467C1439.46 304.467 1438.38 304.053 1437.52 303.226C1436.67 302.4 1436.24 301.36 1436.24 300.093V195.267C1436.24 194.013 1436.67 192.973 1437.52 192.147C1438.38 191.32 1439.46 190.907 1440.76 190.907C1442.07 190.907 1443.15 191.32 1444 192.147C1444.86 192.973 1445.28 194.013 1445.28 195.267V243.253H1521.31V195.267C1521.31 194.013 1521.74 192.973 1522.59 192.147C1523.44 191.32 1524.52 190.907 1525.83 190.907C1527.03 190.907 1528.08 191.32 1528.99 192.147C1529.9 192.973 1530.35 194.013 1530.35 195.267V300.093C1530.35 301.36 1529.9 302.4 1528.99 303.226C1528.08 304.053 1526.98 304.467 1525.68 304.467C1524.47 304.467 1523.44 304.053 1522.59 303.226C1521.74 302.4 1521.31 301.36 1521.31 300.093V251.107H1445.28V300.093C1445.28 301.36 1444.86 302.4 1444 303.226C1443.15 304.053 1442.07 304.467 1440.76 304.467Z" fill="#43A3FB"/>
<path d="M439.002 303.867C436.069 303.867 428.855 303.093 428.855 303.093C428.855 303.093 428.789 296.587 428.789 293.64V263L432.602 241.773L449.216 248.987V293.64C449.216 296.587 449.242 303.093 449.242 303.093C449.242 303.093 441.936 303.867 439.002 303.867ZM394.136 286.44C400.949 286.44 407.029 284.8 412.362 281.533C417.709 278.253 421.909 273.787 424.989 268.107C428.055 262.44 429.589 256.053 429.589 248.987C429.589 241.773 428.055 235.333 424.989 229.653C421.909 223.973 417.709 219.506 412.362 216.226C407.029 212.96 400.949 211.32 394.136 211.32C387.469 211.32 381.429 212.96 376.016 216.226C370.602 219.506 366.336 223.973 363.202 229.653C360.056 235.333 358.496 241.773 358.496 248.987C358.496 256.053 360.056 262.44 363.202 268.107C366.336 273.787 370.602 278.253 376.016 281.533C381.429 284.8 387.469 286.44 394.136 286.44ZM390.136 304.467C380.389 304.467 371.642 302.027 363.896 297.147C356.149 292.28 350.042 285.667 345.576 277.32C341.096 268.973 338.855 259.533 338.855 248.987C338.855 238.44 341.296 228.947 346.176 220.533C351.042 212.12 357.656 205.48 366.002 200.613C374.349 195.733 383.722 193.293 394.136 193.293C404.562 193.293 413.895 195.733 422.189 200.613C430.455 205.48 437.042 212.12 441.909 220.533C446.789 228.947 449.216 238.44 449.216 248.987H441.416C441.416 259.533 439.176 268.973 434.696 277.32C430.229 285.667 424.122 292.28 416.376 297.147C408.629 302.027 399.882 304.467 390.136 304.467Z" fill="#43A3FB"/>
<path d="M519.521 304.467C512.841 304.467 506.841 302.76 501.494 299.347C496.147 295.947 491.947 291.306 488.881 285.426C485.801 279.56 484.267 272.947 484.267 265.6V170.067C484.267 167.133 485.201 164.72 487.067 162.853C488.947 160.987 491.347 160.053 494.281 160.053C497.227 160.053 499.627 160.987 501.494 162.853C503.361 164.72 504.294 167.133 504.294 170.067V265.6C504.294 270.947 505.761 275.413 508.707 279.026C511.641 282.626 515.241 284.426 519.521 284.426H526.334C528.734 284.426 530.774 285.373 532.441 287.24C534.107 289.107 534.947 291.507 534.947 294.44C534.947 297.387 534.854 303.893 534.854 303.893C534.854 303.893 526.601 304.467 523.134 304.467H519.521ZM475.054 216.133C472.254 216.133 469.974 215.333 468.241 213.733C466.507 212.12 465.641 210.12 465.641 207.72C465.641 205.053 466.507 202.92 468.241 201.307C469.974 199.707 472.254 198.907 475.054 198.907H521.321C524.134 198.907 526.401 199.707 528.134 201.307C529.867 202.92 530.734 205.053 530.734 207.72C530.734 210.12 529.867 212.12 528.134 213.733C526.401 215.333 524.134 216.133 521.321 216.133H475.054Z" fill="#43A3FB"/>
<path d="M569.788 235.96C569.788 227.946 571.762 220.773 575.695 214.426C579.642 208.093 584.948 203.053 591.628 199.307C598.295 195.573 605.641 193.693 613.655 193.693C621.668 193.693 627.642 195 631.575 197.6C635.522 200.213 637.015 203.32 636.082 206.92C635.682 208.787 634.921 210.226 633.788 211.226C632.641 212.226 631.348 212.867 629.882 213.133C628.402 213.4 626.802 213.333 625.068 212.933C616.522 211.2 608.855 211.053 602.042 212.533C595.228 214 589.855 216.733 585.908 220.733C581.975 224.747 580.002 229.826 580.002 235.96H569.788ZM569.988 304.467C566.788 304.467 559.908 303.893 559.908 303.893C559.908 303.893 559.975 297.787 559.975 294.44V204.92C559.975 201.707 560.842 199.24 562.575 197.507C564.322 195.773 566.788 194.907 569.988 194.907C573.321 194.907 575.828 195.733 577.508 197.4C579.175 199.08 580.002 201.573 580.002 204.92V294.44C580.002 297.653 579.908 303.893 579.908 303.893C579.908 303.893 573.321 304.467 569.988 304.467" fill="#43A3FB"/>
<path d="M296.041 304.467C293.094 304.467 285.868 303.893 285.868 303.893C285.868 303.893 285.828 297.187 285.828 294.253V205.12C285.828 202.04 286.788 199.573 288.735 197.707C290.668 195.84 293.094 194.907 296.041 194.907C299.108 194.907 301.574 195.84 303.454 197.707C305.321 199.573 306.254 202.04 306.254 205.12V294.253C306.254 297.187 306.241 303.893 306.241 303.893C306.241 303.893 299.108 304.467 296.041 304.467ZM296.041 177.08C292.428 177.08 289.334 175.773 286.721 173.173C284.121 170.56 282.814 167.467 282.814 163.853C282.814 160.253 284.121 157.147 286.721 154.547C289.334 151.933 292.428 150.64 296.041 150.64C299.641 150.64 302.748 151.933 305.348 154.547C307.961 157.147 309.254 160.253 309.254 163.853C309.254 167.467 307.961 170.56 305.348 173.173C302.748 175.773 299.641 177.08 296.041 177.08Z" fill="#43A3FB"/>
<path d="M712.147 286.44C719.08 286.44 725.227 284.826 730.574 281.626C735.907 278.426 740.08 274.013 743.094 268.413C746.094 262.8 747.587 256.32 747.587 248.987C747.587 241.64 746.094 235.133 743.094 229.453C740.08 223.773 735.907 219.333 730.574 216.133C725.227 212.933 719.08 211.32 712.147 211.32C705.2 211.32 699.054 212.933 693.72 216.133C688.374 219.333 684.16 223.773 681.094 229.453C678.027 235.133 676.494 241.64 676.494 248.987C676.494 256.32 678.027 262.8 681.094 268.413C684.16 274.013 688.374 278.426 693.72 281.626C699.054 284.826 705.2 286.44 712.147 286.44ZM712.147 304.467C701.32 304.467 691.774 302.093 683.494 297.347C675.214 292.613 668.707 286.067 663.974 277.72C659.227 269.373 656.867 259.8 656.867 248.987C656.867 238.027 659.227 228.387 663.974 220.04C668.707 211.693 675.214 205.146 683.494 200.413C691.774 195.666 701.32 193.293 712.147 193.293C722.827 193.293 732.307 195.666 740.587 200.413C748.854 205.146 755.374 211.693 760.107 220.04C764.854 228.387 767.227 238.027 767.227 248.987C767.227 259.8 764.88 269.373 760.214 277.72C755.534 286.067 749.067 292.613 740.787 297.347C732.507 302.093 722.96 304.467 712.147 304.467" fill="#43A3FB"/>
<path d="M890.202 304.467C887.255 304.467 879.962 303.693 879.962 303.693C879.962 303.693 879.988 297.187 879.988 294.24V244.973C879.988 237.36 878.588 231.16 875.775 226.346C872.975 221.533 869.202 217.973 864.468 215.626C859.722 213.293 854.282 212.12 848.135 212.12C842.535 212.12 837.455 213.267 832.921 215.533C828.375 217.8 824.775 220.84 822.095 224.64C819.428 228.453 818.095 232.826 818.095 237.76H805.482C805.482 229.346 807.508 221.84 811.588 215.226C815.655 208.626 821.228 203.387 828.308 199.507C835.388 195.64 843.335 193.693 852.148 193.693C861.362 193.693 869.602 195.666 876.882 199.613C884.162 203.546 889.895 209.32 894.108 216.933C898.308 224.547 900.415 233.893 900.415 244.973V294.24C900.415 297.187 900.348 303.693 900.348 303.693C900.348 303.693 893.135 304.467 890.202 304.467V304.467ZM807.882 304.467C804.935 304.467 797.521 303.693 797.521 303.693C797.521 303.693 797.668 297.187 797.668 294.24V204.92C797.668 201.84 798.628 199.373 800.575 197.507C802.508 195.64 804.935 194.707 807.882 194.707C810.948 194.707 813.415 195.64 815.295 197.507C817.162 199.373 818.095 201.84 818.095 204.92V294.24C818.095 297.187 818.095 303.693 818.095 303.693C818.082 303.693 810.948 304.467 807.882 304.467" fill="#43A3FB"/>
<path d="M228.455 268.306C225.375 274.066 221.149 278.586 215.802 281.866C210.442 285.146 204.349 286.786 197.522 286.786C190.829 286.786 184.762 285.146 179.335 281.866C173.922 278.586 169.629 274.066 166.482 268.306C163.335 262.56 161.762 256.133 161.762 249.026C161.762 241.799 163.335 235.373 166.482 229.746C169.629 224.119 173.922 219.666 179.335 216.386C184.762 213.106 190.829 211.466 197.522 211.466C204.349 211.466 210.442 213.106 215.802 216.386C221.149 219.666 225.375 224.119 228.455 229.746C231.522 235.373 233.069 241.799 233.069 249.026C233.069 250.853 232.962 252.613 232.762 254.346C232.509 254.239 232.269 254.106 232.042 253.959C231.162 253.413 230.402 252.666 229.495 252.173C228.589 251.68 227.429 251.453 226.535 252C226.082 252.266 225.762 252.706 225.442 253.146C223.415 255.973 221.389 258.786 219.362 261.613C218.655 255.399 217.949 249.2 217.229 242.986C217.082 241.586 216.442 239.759 215.029 239.879C214.015 239.973 213.455 241.093 213.082 242.053C211.749 245.6 210.402 249.133 209.069 252.679C207.469 244.693 205.855 236.706 204.255 228.72C204.015 227.533 203.495 226.093 202.282 226.026C201.015 225.959 200.362 227.493 200.082 228.733C197.855 238.453 195.629 248.173 193.389 257.879C192.215 252.226 191.029 246.56 189.842 240.906C189.575 239.626 188.962 238.039 187.655 238.026C186.642 238.026 185.935 239.04 185.442 239.92C183.935 242.573 182.442 245.239 180.949 247.893C180.309 249.013 179.642 250.173 178.575 250.866C177.495 251.573 175.895 251.639 175.055 250.679C175.109 251.546 175.149 252.426 175.202 253.306C176.882 254.44 179.095 255.6 180.815 254.52C181.549 254.066 182.015 253.306 182.442 252.559C183.922 250.053 185.389 247.546 186.855 245.04C188.295 251.893 189.722 258.759 191.162 265.626C191.322 266.359 191.469 267.093 191.909 267.706C192.335 268.32 193.095 268.746 193.815 268.546C194.762 268.279 195.122 267.173 195.349 266.226C197.589 256.453 199.829 246.693 202.069 236.933C203.549 244.253 205.015 251.573 206.482 258.893C206.695 259.933 207.095 261.173 208.135 261.386C209.389 261.64 210.255 260.2 210.709 259C211.882 255.92 213.042 252.826 214.202 249.733C214.829 255.08 215.442 260.426 216.069 265.773C216.202 266.946 216.589 268.386 217.735 268.573C218.735 268.733 219.535 267.813 220.122 267.013C222.922 263.119 225.722 259.239 228.522 255.346C229.642 255.906 230.642 256.666 231.695 257.333C231.829 257.413 232.029 257.466 232.269 257.533C231.522 261.346 230.242 264.946 228.455 268.306V268.306ZM249.935 150.013C248.069 148.146 245.589 147.2 242.509 147.2C239.562 147.2 237.109 148.146 235.175 150.013C233.229 151.893 232.269 154.36 232.269 157.44V211.666C227.709 206.053 222.082 201.6 215.389 198.306C208.695 195.04 201.402 193.4 193.509 193.4C183.722 193.4 174.949 195.84 167.189 200.72C159.415 205.613 153.295 212.239 148.815 220.613C144.322 228.973 142.082 238.453 142.082 249.026C142.082 259.599 144.522 269.119 149.415 277.546C154.295 285.986 160.935 292.653 169.295 297.533C177.669 302.426 187.069 304.866 197.522 304.866C207.962 304.866 217.335 302.426 225.642 297.533C233.935 292.653 240.535 285.986 245.415 277.546C250.309 269.119 252.749 259.599 252.749 249.026V157.44C252.749 154.36 251.815 151.893 249.935 150.013" fill="#43A3FB"/>
</svg>
