<svg width="611" height="870" viewBox="0 0 611 870" fill="none" xmlns="http://www.w3.org/2000/svg">
<path d="M476.681 667.76C459.694 699.52 436.427 724.386 406.947 742.466C377.401 760.546 343.867 769.613 306.227 769.613C269.321 769.613 235.907 760.546 206.027 742.466C176.147 724.386 152.534 699.52 135.187 667.76C117.854 636.053 109.187 600.626 109.187 561.506C109.187 521.653 117.854 486.24 135.187 455.253C152.534 424.24 176.147 399.72 206.027 381.64C235.907 363.56 269.321 354.546 306.227 354.546C343.867 354.546 377.401 363.56 406.947 381.64C436.427 399.72 459.694 424.24 476.681 455.253C493.627 486.24 502.121 521.653 502.121 561.506C502.121 571.533 501.561 581.293 500.427 590.826C499.081 590.213 497.721 589.48 496.468 588.693C491.628 585.693 487.441 581.586 482.441 578.853C477.428 576.106 471.027 574.84 466.147 577.853C463.614 579.373 461.828 581.813 460.134 584.213C448.934 599.76 437.787 615.306 426.587 630.866C422.707 596.626 418.788 562.426 414.868 528.226C414.001 520.466 410.467 510.453 402.721 511.106C397.094 511.586 394.001 517.773 392.001 523.093C384.641 542.6 377.228 562.12 369.868 581.64C361.028 537.6 352.188 493.6 343.334 449.56C342.028 443.066 339.121 435.093 332.494 434.746C325.481 434.346 321.908 442.84 320.334 449.68C308.054 503.226 295.774 556.76 283.481 610.306C276.987 579.106 270.454 547.92 263.921 516.733C262.441 509.666 259.094 500.96 251.854 500.92C246.241 500.866 242.401 506.44 239.654 511.32C231.387 525.96 223.108 540.6 214.868 555.24C211.388 561.426 207.681 567.786 201.801 571.666C195.881 575.533 187.027 575.933 182.414 570.613C182.681 575.413 182.934 580.24 183.201 585.08C192.481 591.306 204.681 597.706 214.174 591.786C218.188 589.306 220.747 585.08 223.147 580.986C231.254 567.173 239.347 553.32 247.454 539.506C255.387 577.32 263.268 615.133 271.201 653C272.028 657 272.894 661.093 275.294 664.453C277.641 667.8 281.868 670.16 285.841 669.066C291.014 667.626 293.028 661.493 294.241 656.266C306.574 602.413 318.948 548.613 331.268 494.813C339.414 535.2 347.521 575.533 355.627 615.88C356.801 621.586 358.974 628.426 364.681 629.6C371.614 631.04 376.401 623.066 378.934 616.44C385.334 599.453 391.734 582.426 398.187 565.386C401.587 594.88 404.974 624.333 408.427 653.773C409.161 660.226 411.294 668.2 417.654 669.2C423.107 670.066 427.548 665.053 430.774 660.613C446.188 639.186 461.614 617.746 477.081 596.36C483.267 599.413 488.747 603.64 494.587 607.253C495.294 607.693 496.374 608.04 497.721 608.346C493.587 629.426 486.574 649.2 476.681 667.76V667.76ZM595.094 15.8398C584.761 5.51977 571.134 0.332995 554.134 0.332995C537.894 0.332995 524.427 5.51977 513.761 15.8398C503.041 26.1598 497.681 39.7995 497.681 56.7861V355.626C472.587 324.653 441.614 300.133 404.721 282.013C367.827 263.973 327.614 254.906 284.094 254.906C230.201 254.906 181.854 268.373 139.068 295.293C96.2542 322.266 62.534 358.773 37.7874 404.906C13.0407 450.986 0.720703 503.226 0.720703 561.506C0.720703 619.8 14.1741 672.2 41.0941 718.68C68.0141 765.173 104.574 801.893 150.708 828.813C196.788 855.773 248.627 869.2 306.227 869.2C363.774 869.2 415.388 855.773 461.174 828.813C506.921 801.893 543.254 765.173 570.174 718.68C597.134 672.2 610.601 619.8 610.601 561.506V56.7861C610.601 39.7995 605.414 26.1598 595.094 15.8398" fill="#43A3FB"/>
</svg>
